<svg width="188" height="130" viewBox="0 0 188 130" fill="none" xmlns="http://www.w3.org/2000/svg">
<g clip-path="url(#clip0_6128_7734)">
<g clip-path="url(#clip1_6128_7734)">
<g clip-path="url(#clip2_6128_7734)">
<path fill-rule="evenodd" clip-rule="evenodd" d="M120.526 48.5254C120.176 50.3927 119.626 52.4022 118.276 54.0278V54.1321C115.646 57.2458 112.117 59.0136 108.9 61.369C105.579 63.7245 93.986 71.7197 93.986 71.7197C92.3941 70.8524 79.0008 61.369 79.0008 61.369C76.2672 59.3264 73.6378 57.4923 70.9705 55.5539C69.933 54.4828 68.9996 53.2032 68.4785 51.8145L68.27 51.1226L68.2369 0.236328L120.763 0.269503C120.763 0.269503 120.73 39.8003 120.521 48.5254H120.526Z" fill="$appcolor"/>
<path d="M93.9954 72L93.8675 71.9289C92.2804 71.0616 79.4082 61.9479 78.8587 61.564C77.1247 60.2701 75.4144 59.0427 73.761 57.8578C72.785 57.1564 71.8091 56.4597 70.8284 55.7441C69.6108 54.4929 68.7296 53.1706 68.2511 51.8957L68.0284 51.1185L68 0L121 0.0379147V0.274882C121 0.668246 120.967 39.91 120.758 48.5355V48.5735C120.422 50.3602 119.891 52.4171 118.508 54.1185V54.2228L118.451 54.2891C116.566 56.5261 114.183 58.0995 111.88 59.6161C110.937 60.237 109.966 60.8815 109.037 61.5592C105.75 63.891 94.2323 71.8341 94.1186 71.9147L94.0002 71.9953L93.9954 72ZM68.5069 51.09L68.7059 51.7488C69.156 52.9479 69.9993 54.2133 71.1411 55.3934C72.0886 56.0806 73.0645 56.7773 74.0405 57.4787C75.6987 58.6635 77.409 59.891 79.1429 61.1848C79.2709 61.2749 91.9346 70.2417 93.9718 71.4455C95.2272 70.5782 105.66 63.3744 108.763 61.1801C109.701 60.4929 110.677 59.8483 111.624 59.2228C113.979 57.6682 116.206 56.1991 118.039 54.0474V53.9431L118.096 53.8768C119.451 52.2512 119.967 50.2464 120.294 48.4976C120.493 40.1896 120.531 3.80569 120.536 0.50237L68.4738 0.473934L68.5069 51.0853V51.09Z" fill="white"/>
<path fill-rule="evenodd" clip-rule="evenodd" d="M102.045 6.01901C103.603 8.8247 103.461 12.1802 101.666 14.8105C99.8654 17.474 96.7528 18.7584 93.5027 18.5498C90.248 18.2702 87.2396 15.9858 86.0978 12.9432C84.9892 9.79153 85.7188 6.46925 87.9644 4.18489C90.4896 1.55456 94.7108 0.758352 98.0698 2.31759C99.6617 3.00954 101.187 4.49769 102.049 6.01901H102.045Z" fill="#B5D2EE"/>
<path fill-rule="evenodd" clip-rule="evenodd" d="M102.253 5.89505C101.31 4.24102 99.8843 2.91874 98.1693 2.0941C94.7108 0.492204 90.447 1.29789 87.7891 4.01353C85.5056 6.34528 84.6623 9.95666 85.8704 13.0278C87.1069 16.1699 90.0869 18.4969 93.4791 18.7908C94.9667 18.9187 96.6059 18.6391 97.9893 18.0799C99.5622 17.4448 100.912 16.35 101.865 14.9472C103.703 12.2647 103.873 8.72917 102.253 5.89979V5.89505ZM93.517 18.3074C90.2859 17.9804 87.5049 15.8761 86.3157 12.8524C85.2261 9.90927 85.932 6.59647 88.1303 4.35476C90.7075 1.76709 94.6208 1.04197 97.9561 2.53486C99.5811 3.31685 100.931 4.57277 101.827 6.13675C103.343 8.81922 103.201 12.132 101.457 14.6723C100.638 15.8761 99.529 16.8287 98.212 17.4496C96.7433 18.1273 95.1278 18.4259 93.517 18.3074Z" fill="#B5D2EE"/>
<path fill-rule="evenodd" clip-rule="evenodd" d="M101.386 6.12339C103.016 8.82481 102.698 12.4931 100.694 14.986C98.861 17.0997 95.9521 18.3082 92.9105 17.7537C90.1058 17.2371 87.5475 15.0191 86.6805 12.3177C85.7803 9.58311 86.5099 6.84851 88.3055 4.80586C90.4185 2.35088 94.1897 1.45041 97.3355 2.69685C98.9984 3.35562 100.453 4.53097 101.386 6.12339Z" fill="$appcolor"/>
<path fill-rule="evenodd" clip-rule="evenodd" d="M96.7149 3.87213C96.1605 4.94322 94.744 6.26075 95.0898 7.61146C95.5778 8.64938 96.0611 9.79156 95.8526 11.0048L95.9237 11.0712C96.1653 10.4124 96.3027 9.82947 96.6485 9.20388C97.724 8.0617 98.5862 6.39819 97.9656 4.87687L97.724 4.2181C99.728 5.18966 101.216 7.40293 101.32 9.79156C101.391 11.1044 100.941 12.8721 100.041 14.0475C99.6948 14.4645 99.1405 14.7726 98.5531 14.7726C97.7903 14.7394 97.236 14.3224 96.8901 13.7015C96.5111 13.0096 97.1649 12.1423 96.1984 11.9006C95.7152 11.8295 95.4404 12.3508 95.0898 12.5593C95.8194 13.0096 96.7859 13.7347 96.7149 14.7773C96.9375 15.8247 96.2648 16.8532 95.2983 17.3034C94.4692 17.7157 93.4317 17.4408 92.74 16.9195C92.0483 16.4029 91.7545 15.474 91.8398 14.7394C92.0151 13.9432 92.6026 13.0427 93.3985 12.7299C93.5406 12.3508 92.9863 12.0712 92.74 11.8626C92.361 11.7584 92.0483 11.8958 91.873 12.275C91.873 12.8958 91.873 13.4172 91.565 13.9717C91.186 14.4219 90.5607 14.8721 89.8358 14.7679C88.1066 14.3508 87.5854 12.4124 87.3438 10.8532C87.069 8.3271 88.2439 5.83421 90.4612 4.45033L90.9444 4.20862C90.9112 4.69203 90.6365 5.28445 90.6365 5.87213C90.3948 7.88161 92.4699 8.84843 92.541 10.6826L92.7115 11.0285C92.8489 10.6494 92.7826 10.0238 92.7447 9.67781C92.8821 8.46454 94.0949 7.39345 93.4032 6.14701C93.0574 5.31763 92.432 4.62568 92.0909 3.79156C93.3369 2.89108 95.5541 2.78682 96.7291 3.86265L96.7149 3.87213Z" fill="#B5D2EE"/>
<path fill-rule="evenodd" clip-rule="evenodd" d="M94.5829 2.85742C93.5169 2.81477 92.6547 3.12282 91.7735 3.71524C91.9961 4.21287 92.1951 4.61572 92.4983 5.06121C92.7542 5.44036 93.3985 6.45458 93.3606 7.05173C93.3227 7.38349 93.2279 7.7105 93.0811 8.01382C92.8963 8.36453 92.5552 9.17496 92.4983 9.61098C92.3183 9.18444 92.0625 8.77211 91.8019 8.42614C91.5271 8.05647 91.2855 7.66311 91.0818 7.24605C90.7928 6.62993 90.807 5.70576 91.0107 5.03752C91.1481 4.5778 91.1765 4.25079 91.2286 3.80529L90.3332 4.25553H90.3238C88.0592 5.66785 86.8037 8.24605 87.0974 10.8953C87.1969 11.7152 87.448 12.5778 87.7891 13.3266C88.1207 14.0802 88.9356 14.8811 89.7884 15.0233C90.4706 15.137 91.3897 14.6915 91.764 14.1181C91.764 14.1181 91.764 14.1133 91.7687 14.1086C91.6882 14.3029 91.6266 14.502 91.5934 14.7105C91.456 15.5825 91.8966 16.5873 92.5836 17.1181C92.9484 17.4024 93.4222 17.6062 93.8722 17.6963C94.3839 17.81 94.9193 17.7484 95.3978 17.5257C95.8952 17.2934 96.3169 16.9285 96.6153 16.4641C96.947 15.9617 97.0654 15.3503 96.9564 14.7626C96.9612 14.5541 96.9375 14.3456 96.8759 14.1465C97.2644 14.6584 97.9087 15.0375 98.553 15.0233C99.1784 15.0043 99.8417 14.7058 100.225 14.2034C101.121 13.0328 101.628 11.246 101.557 9.78633C101.434 7.33136 100.012 5.1323 97.8282 4.00908L97.2739 3.72472L97.7287 4.96643C97.975 5.61572 97.9893 6.30292 97.7571 6.96169C97.4823 7.73894 97.0417 8.44984 96.4685 9.04226L96.44 9.07069C96.35 9.19865 96.2126 9.52093 96.08 9.8669C95.971 9.06595 95.6631 8.25079 95.3172 7.54463C95.2177 6.96169 95.3551 6.44984 95.6631 5.95221C95.8526 5.61572 96.061 5.29818 96.2837 4.99012C96.5822 4.58728 96.7669 4.27448 97.018 3.82425L96.8664 3.69628C96.2269 3.16074 95.4167 2.8669 94.5782 2.8669L94.5829 2.85742ZM91.9109 13.8195C92.0814 13.3787 92.1241 12.8053 92.1146 12.3266C92.2046 12.137 92.4178 12.0328 92.6215 12.0849L93.0621 12.4261C93.1047 12.4641 93.1379 12.5115 93.1663 12.5636C93.1663 12.5636 93.1663 12.5683 93.1663 12.5731C92.6594 12.8479 92.2046 13.2934 91.9109 13.8148V13.8195ZM96.5538 13.4972C96.5301 13.4688 96.5111 13.4404 96.4874 13.4119C96.1984 13.0754 95.8668 12.7769 95.4973 12.5257L95.7531 12.3029C95.8194 12.246 95.8857 12.2034 95.9615 12.1655C96.0184 12.137 96.0895 12.1276 96.1558 12.137C96.2648 12.156 96.3595 12.2129 96.4353 12.2887C96.4637 12.3219 96.4827 12.3598 96.4922 12.4024L96.5206 12.6631V13.1702C96.5158 13.2792 96.5301 13.3882 96.5538 13.4925V13.4972ZM96.3927 3.92851C96.0658 4.45458 95.7247 4.9759 95.3741 5.48301C95.1893 5.76263 95.0188 6.14178 94.9145 6.45458C94.8103 6.76263 94.7203 7.40719 94.8766 7.71524C95.502 8.98538 95.791 9.82425 95.5967 11.0896L96.0421 11.5209C96.2932 10.6726 96.4827 10.1039 96.8522 9.34083C97.4018 8.76263 97.8377 8.08965 98.1409 7.35031C98.4914 6.53989 98.5104 5.61572 98.193 4.78633L98.1835 4.76263C99.889 5.87164 100.979 7.74368 101.078 9.80055C101.126 11.2603 100.694 12.701 99.8464 13.9001C99.5243 14.284 99.0552 14.5162 98.553 14.5304C97.885 14.4972 97.0702 13.9854 97.0086 13.2603L96.9991 12.483C96.9944 12.2176 96.8285 11.9143 96.5869 11.7958L96.2553 11.6631C96.0042 11.6015 95.6678 11.7342 95.483 11.9001C95.194 12.1702 94.9998 12.3171 94.6587 12.5873C95.2651 12.9427 95.5778 13.1418 96.0326 13.6205C96.3974 14.0043 96.4306 14.284 96.4732 14.7911V14.8195C96.568 15.246 96.4969 15.6915 96.2837 16.0707C96.0326 16.5209 95.6631 16.8574 95.1988 17.0802C94.4502 17.4309 93.5359 17.2081 92.8916 16.7247C92.3088 16.2508 92.0056 15.5162 92.0814 14.7721C92.2614 13.9096 92.811 13.284 93.5927 12.9048C93.7064 12.6062 93.678 12.3266 93.4316 12.1039L92.8631 11.6489C92.8394 11.6347 92.811 11.6252 92.7873 11.611L92.9437 11.1039C93.0147 10.8764 93.0432 10.6442 93.0384 10.4072L92.991 9.69628C93.0858 9.20339 93.2232 8.84794 93.4506 8.39297C93.8438 7.6015 94.0475 6.80055 93.6212 6.03752C93.4459 5.64889 93.2232 5.24131 92.9863 4.8906C92.7684 4.56832 92.5741 4.23183 92.4036 3.88112C93.0053 3.51619 93.6259 3.35979 94.346 3.33136C95.1088 3.30292 95.8005 3.47827 96.4069 3.91903L96.3927 3.92851ZM92.7068 11.5968C92.2804 11.4925 91.7071 11.8148 91.6266 12.2366L91.5934 13.1039C91.5603 13.3645 91.4797 13.6205 91.3566 13.8527C91.006 14.3171 90.4469 14.5731 89.8689 14.5399C89.2151 14.3693 88.6608 13.9285 88.3434 13.3266C87.9407 12.5494 87.6849 11.7105 87.5807 10.8385C87.3106 8.37875 88.4761 5.98538 90.5748 4.67259L90.6175 4.65363C90.6033 4.70576 90.5891 4.7579 90.5748 4.81003C90.4706 5.14652 90.4043 5.50197 90.3901 5.86216C90.2811 6.79581 90.717 7.74842 91.2713 8.49723C91.8587 9.30292 92.2472 9.84794 92.2946 10.7579L92.7163 11.6015L92.7068 11.5968Z" fill="#B5D2EE"/>
<path fill-rule="evenodd" clip-rule="evenodd" d="M93.7396 13.6354C92.9105 14.569 94.0144 15.2989 94.2607 16.1946C94.6066 15.8486 94.8814 15.0856 95.0898 14.6354C95.123 14.0809 94.6776 13.5974 95.0235 13.0761C95.5778 13.1804 96.1321 13.697 96.3027 14.2183C96.5774 14.7728 96.5111 15.569 96.2316 16.0903C95.8194 16.7728 95.393 17.0666 94.7345 17.2088C93.768 17.3463 93.2658 17.1377 92.4841 16.2989C92.2662 15.9245 92.034 15.3036 92.1383 14.7823C92.3657 14.1093 92.6641 13.3226 93.4269 13.0098C93.9149 13.0524 93.7728 13.4268 93.7396 13.6306V13.6354Z" fill="$appcolor"/>
<path fill-rule="evenodd" clip-rule="evenodd" d="M74.5332 21.9438C74.8459 22.5646 74.3626 23.0149 74.0452 23.4651C74.2205 24.3987 73.562 25.266 74.6706 26.0623C75.4665 25.9912 76.6793 26.5125 77.1294 25.612C77.371 25.4746 77.75 25.5078 77.9964 25.6499C78.3754 25.7874 78.4465 26.304 78.4465 26.5836C78.4796 26.9627 78.1338 27.2044 77.8211 27.3466C77.3047 27.4841 76.8167 27.176 76.504 26.8253C75.637 27.0006 74.4289 26.413 74.012 27.3466L73.8746 27.9011L73.9125 36.1713C74.7748 36.5551 75.746 36.5883 76.6793 36.7969C76.6793 37.1096 76.5751 37.2471 76.4709 37.522C76.0919 37.6262 75.9166 37.939 75.6418 38.1096C75.0875 37.9011 74.6042 37.522 74.0168 37.4888C73.7752 37.8348 73.9457 38.3182 73.8083 38.631L73.3914 38.1476L73.3582 27.4509C72.875 26.5883 71.8706 26.7258 71.0747 26.7921C70.7289 27.0717 70.2456 27.4841 69.6913 27.3134C69.3123 27.1049 69.1038 26.8253 69.0328 26.413C69.0659 25.9627 69.3786 25.5836 69.8287 25.4793C70.3498 25.3751 70.691 25.8253 71.0036 26.067C71.9038 26.1002 72.9413 26.3419 73.3914 25.3751C73.2872 24.4414 73.9125 23.4698 72.8371 22.7779C72.7329 22.5362 72.6997 22.1191 72.8703 21.8774C73.0456 21.7021 73.2493 21.5314 73.4577 21.4604C73.941 21.3561 74.391 21.5646 74.5284 21.9438H74.5332Z" fill="#B5D2EE"/>
<path fill-rule="evenodd" clip-rule="evenodd" d="M119.275 23.118C119.83 24.227 119.242 25.4355 118.48 26.2317C118.134 26.4734 117.892 26.7862 117.65 27.1322C117.963 27.4402 118.517 27.7198 118.517 28.1701C118.451 28.5492 118.517 28.8289 118.138 29.0706C117.859 29.2412 117.485 29.3834 117.101 29.208C116.755 28.9995 116.547 28.5871 116.584 28.2743C116.788 27.0611 118.001 26.1985 118.726 25.1606C118.83 24.7435 119.039 24.3312 118.896 23.9142C118.792 23.4971 118.517 22.9094 118.034 22.6677C117.584 22.3549 116.892 22.3217 116.404 22.5303C115.888 22.7009 115.504 23.1843 115.334 23.6725C115.054 25.8194 115.163 27.5871 115.092 29.4876C114.988 34.0943 115.125 36.7909 114.988 41.6725C114.817 41.7767 114.609 41.7056 114.467 41.6014C114.192 37.3786 114.571 33.7435 114.467 28.4829L114.5 23.535C114.708 22.7388 115.4 21.8715 116.333 21.7009C117.508 21.4592 118.787 21.9758 119.271 23.1227L119.275 23.118Z" fill="#B5D2EE"/>
<path fill-rule="evenodd" clip-rule="evenodd" d="M118.034 23.8102C118.205 24.2272 118.001 24.5021 117.892 24.8481C117.826 24.8813 117.788 24.9192 117.688 24.9192C117.688 25.2652 117.238 25.2652 116.959 25.2272C116.75 25.1609 116.338 25.2604 116.404 24.9192C116.059 24.9192 116.092 24.5021 115.988 24.2936C115.988 23.8765 116.267 23.3599 116.75 23.2557C117.305 23.014 117.755 23.4263 118.034 23.8102Z" fill="#B5D2EE"/>
<path fill-rule="evenodd" clip-rule="evenodd" d="M105.058 30.1802C104.849 30.3887 104.712 30.7347 104.816 31.0096C105.75 31.7347 106.2 30.1423 107.237 30.6257C108.175 30.6968 108.313 31.7679 109.175 31.91C109.383 32.0475 109.8 32.1186 109.762 32.4645L108.346 32.3934L108.242 32.4977C109.037 33.2607 110.25 33.2228 111.146 33.9195C111.25 34.1944 111.558 34.2276 111.634 34.5735C111.529 35.0285 110.871 35.0285 110.871 35.5451C110.212 35.9953 109.383 34.9243 108.725 35.7205C108.549 36.0996 107.995 36.275 108.17 36.7584C108.895 36.7916 109.241 35.9953 110.004 36.2702C110.141 36.7584 109.971 37.2371 109.691 37.5167C109.554 37.1707 109 37.0001 108.654 37.2086C108.412 37.3792 108.204 37.692 108.346 38.0048C109.416 39.0759 111.008 38.1091 112.117 37.692L113.363 36.9669C113.605 37.2086 112.913 37.9006 113.642 37.692L113.988 37.4171L114.059 39.9432C113.78 40.4598 112.155 40.2181 112.813 41.1897C113.647 41.9859 114.926 42.057 115.964 42.5072C116.239 42.7157 116.134 42.9906 116.172 43.1991C116.139 43.4788 115.684 43.4077 115.793 43.7536C116.101 43.9622 116.277 44.2418 116.277 44.5167C116.243 44.7584 116.243 44.8958 116.035 45.1043C115.76 45.3508 115.272 45.4882 114.893 45.4171C114.723 45.7252 114.547 46.147 114.097 46.1091C113.785 46.0759 113.477 45.8342 113.339 45.5925C113.306 45.5261 113.339 45.3176 113.164 45.3176C112.818 45.2513 112.818 45.7015 112.539 45.91C112.193 45.8389 112.539 45.4219 112.264 45.2844C111.572 46.0475 110.951 46.6352 110.047 47.3603C109.838 47.5688 109.838 47.8105 109.942 48.0522C110.634 48.6399 111.776 48.1186 112.539 48.5025C112.818 49.057 112.539 49.474 112.434 50.128C112.226 50.7868 111.501 51.2371 111.43 51.9669C111.672 52.2418 111.984 52.038 112.292 51.9337C113.192 51.3792 113.226 49.8579 114.472 50.0617C114.784 50.7916 116.025 49.7489 116.063 50.7536C115.888 51.0996 115.718 51.4124 115.751 51.7916C115.092 52.5546 113.988 52.5878 113.226 53.1754C112.775 53.4503 112.359 53.7963 111.875 53.9385C111.496 54.4219 110.909 54.8342 110.25 54.9385C109.938 54.9385 109.734 54.7299 109.625 54.4551C109.592 54.2465 109.729 53.9717 109.521 53.8674C109.279 53.9006 109.037 53.9716 108.758 53.9385C108.654 53.4503 108.862 53.1754 109.104 52.692C108.692 52.5214 108.549 53.1754 108.275 53.2465C108 53.384 107.687 53.4551 107.408 53.5262C106.996 53.2134 107.825 52.9006 107.408 52.5925C106.37 53.8058 103.708 52.6257 103.603 54.7062C103.674 54.948 103.982 55.0854 104.158 55.0854C104.92 54.8769 105.925 53.91 106.512 54.7394C106.271 55.4314 107.687 55.5735 107.067 56.2323C106.858 56.6115 106.095 56.5072 106.271 57.128C105.233 57.9953 104.475 56.3318 103.333 56.9574C102.845 57.1612 102.225 57.3698 101.67 57.1612C101.566 57.0238 101.396 56.8532 101.429 56.6067C101.912 55.4645 102.154 54.256 101.5 53.0427C101.467 52.6636 101.467 52.2465 101.533 51.8295C101.741 51.8626 101.808 52.384 102.154 52.2797C102.362 51.692 102.121 50.8958 102.533 50.3745L102.67 50.2702C103.362 50.5498 104.091 51.3792 104.816 50.8958C105.579 50.1991 104.816 49.3698 104.783 48.5404C104.816 48.0901 104.783 47.6731 104.508 47.2607C103.471 46.602 101.945 46.5356 101.462 45.2181C100.424 43.7631 102.637 42.4171 101.187 40.8579C101.808 40.8911 102.258 41.4124 102.537 41.8958C103.025 42.9669 102.537 43.9385 101.813 44.6968C101.675 45.0048 101.813 45.2844 101.884 45.6304C102.68 46.7394 104.233 46.2892 105.342 46.8105C106.1 46.4977 106.692 45.7347 107.071 45.0759C106.759 44.801 106.446 45.4551 106.001 45.3555H105.896C106.034 44.9053 106.171 44.1802 105.688 43.8342C105.342 43.9006 105.375 44.4551 105.029 44.5261C104.2 43.6589 104.613 42.2039 104.025 41.2702C103.646 41.3745 103.987 42.2371 103.471 41.8579C102.466 40.8579 102.954 39.6446 102.708 38.4645C102.362 38.5356 102.4 38.9148 102.225 39.0901C101.599 38.8816 101.154 38.3318 100.979 37.7394C100.875 37.1849 101.012 36.7015 101.5 36.1802C101.429 35.801 100.979 35.9053 100.875 35.5593C100.666 35.147 101.045 34.7252 101.429 34.4882C101.258 34.038 101.462 33.6209 101.912 33.5546C101.912 33.1375 101.533 32.7631 101.808 32.275C102.154 31.8247 102.741 31.5498 103.367 31.5119C103.537 30.9574 103.575 30.3318 104.3 30.1612C104.575 30.0901 104.816 30.057 105.063 30.1944L105.058 30.1802Z" fill="#B5D2EE"/>
<path fill-rule="evenodd" clip-rule="evenodd" d="M81.5923 30.5591C82.4261 30.5923 82.1466 31.7013 83.0136 31.6681C83.4969 31.9809 83.0468 32.4312 83.3216 32.8103C83.6342 33.1231 83.9801 33.4691 84.1554 33.9193C84.1885 34.1942 84.0843 34.507 83.9801 34.7487C83.53 34.7108 82.9426 34.507 82.4925 34.4691C82.4925 34.9193 82.8052 35.5781 82.5256 35.9572C82.663 36.3743 82.8762 36.8909 82.7341 37.3079C82.663 37.5165 82.5256 37.6871 82.3882 37.8624C83.0136 38.0378 83.151 38.6586 83.3216 39.2463L84.2217 39.488C84.397 39.7629 84.5344 40.2511 84.6007 40.7013C84.9845 40.8387 85.5009 40.9762 85.6051 41.4312C85.4298 42.1231 86.2636 42.0852 86.3631 42.6397C86.9174 43.2321 85.8088 43.9904 86.8464 44.3032C87.5049 44.9951 87.3296 45.7913 86.9838 46.5544C87.2585 46.8293 87.2585 47.3838 87.1922 47.8008C86.4674 48.2842 87.3296 49.5639 86.3631 50.1563C85.9131 50.289 85.8088 49.7724 85.6383 49.5307C85.1219 50.4643 84.9418 51.8861 85.3967 52.9904C85.1882 53.8245 84.4254 54.6539 84.288 55.5875C83.5253 56.1421 82.3124 55.9667 81.6918 56.9003C81.6539 57.6634 80.6874 57.3174 80.2042 57.3506C80.8296 55.4454 83.5253 56.071 84.0796 54.0947C84.3212 53.0236 83.3168 52.2937 82.9046 51.398L82.6299 51.2226C81.4549 51.8435 80.5548 52.8814 79.1666 53.161C78.4418 53.1278 77.6459 53.6444 77.4042 54.1989C77.1626 54.962 76.2956 54.7866 75.6371 54.8198L75.4997 54.7155C75.6371 54.3695 76.1203 54.3364 76.1582 54.0236C77.3711 53.5733 78.6123 52.8814 79.4462 51.9098C79.7589 50.7676 79.9294 50.0046 80.6211 48.9999C80.4127 48.5496 80.3132 48.0994 80.4458 47.6492C79.9294 47.3743 79.2709 46.9572 79.1998 46.3364C78.8208 45.9904 78.0912 45.5733 78.1954 44.9193C77.7122 44.6776 77.1958 44.5733 76.8831 44.0899C77.1579 43.2274 75.9498 43.3648 75.9119 42.6018C75.9119 42.2558 76.0824 42.1184 76.0493 41.7724C75.566 41.4596 75.3244 40.8719 75.495 40.3506C76.3288 39.834 75.4618 38.8624 76.1535 38.2368C76.4283 37.7866 77.4658 37.8577 77.0868 37.1989C77.1911 36.3695 78.3328 36.5733 78.3328 35.7771C78.1954 35.5354 78.7118 34.9809 78.2286 34.8766C77.5369 34.5307 76.4994 35.4311 76.2909 34.2511C76.7078 33.3506 77.4658 32.3127 78.5413 32.071C78.8208 31.5828 78.0201 31.6918 77.8496 31.379C77.7454 31.2416 77.5037 31.0662 77.5748 30.8577C78.2997 30.3743 79.3751 30.8909 80.0289 30.5117C80.55 30.6492 81.1375 30.7866 81.5876 30.5449L81.5923 30.5591Z" fill="#B5D2EE"/>
<path fill-rule="evenodd" clip-rule="evenodd" d="M80.5216 33.018C80.4884 33.364 79.9673 33.3261 79.6546 33.364C79.4461 33.2266 79.2045 33.018 79.2045 32.7431C79.5172 32.3261 80.3463 32.4635 80.5216 33.018Z" fill="$appcolor"/>
<path fill-rule="evenodd" clip-rule="evenodd" d="M117.271 33.6786C117.063 34.4416 118.172 34.3042 117.859 34.9961C117.617 35.8634 116.722 36.4511 116.404 37.3848C116.371 37.5933 116.684 37.5933 116.783 37.4559C116.921 37.2852 117.096 37.0056 117.371 37.0056C117.305 38.1146 116.371 38.7355 115.713 39.3943H115.433C115.367 37.5222 115.466 36.1383 115.504 33.7876C115.784 33.4748 116.021 33.1289 116.476 33.0625C116.855 33.0625 117.167 33.3374 117.271 33.6834V33.6786Z" fill="#B5D2EE"/>
<path fill-rule="evenodd" clip-rule="evenodd" d="M108.791 33.573C108.791 33.8858 108.824 34.0896 108.516 34.1607C108.204 34.1607 107.891 34.3692 107.616 34.1607C107.72 33.9522 107.754 33.6773 108.104 33.5351C108.346 33.4308 108.729 33.2223 108.796 33.5683L108.791 33.573Z" fill="$appcolor"/>
<path fill-rule="evenodd" clip-rule="evenodd" d="M72.875 36.4123C73.0503 36.9668 72.496 37.346 72.7708 38.0048C73.0124 38.455 73.5336 38.9384 73.4957 39.4597C73.4957 39.5308 73.3914 39.7725 73.2541 39.91L72.9414 40.1849C72.6666 40.1517 72.804 39.8389 72.5624 39.7346L72.3207 39.9763L72.3539 40.0095L72.2497 40.1138C72.0081 38.692 71.3495 37.4503 72.0412 36.237C72.2828 35.9242 72.9414 36.0995 72.8703 36.4076L72.875 36.4123Z" fill="#B5D2EE"/>
<path fill-rule="evenodd" clip-rule="evenodd" d="M73.8084 49.8442C73.9789 50.0859 74.2916 49.9153 74.4669 49.7731C76.4046 48.9106 76.6794 46.5883 76.7836 44.9627C77.0963 44.9295 77.409 45.176 77.6506 45.3087C78.6171 46.1428 77.1295 46.6594 77.2005 47.3893C77.5795 49.2234 74.917 49.0148 74.8791 50.7115C74.4953 51.0196 73.8084 50.7826 73.2872 50.7826L73.2493 44.5883C73.4246 43.2376 73.2872 42.0243 73.3867 40.503L73.7657 40.0859C73.9031 42.7542 73.7326 46.285 73.7989 49.849L73.8084 49.8442Z" fill="#B5D2EE"/>
<path fill-rule="evenodd" clip-rule="evenodd" d="M114.917 49.668L114.363 49.4974C114.363 48.5637 114.258 47.4879 114.396 46.5543L114.879 46.3789C115.05 47.5543 114.846 48.1799 114.912 49.668H114.917Z" fill="#B5D2EE"/>
<path fill-rule="evenodd" clip-rule="evenodd" d="M94.3413 22.5548L119.219 1.9908V13.1045L98.6999 30.3415L98.6715 66.4079L94.0286 69.3226L89.76 66.5785L89.7694 30.2041L69.8619 12.6638L69.8761 1.33203L94.3413 22.5548Z" fill="white"/>
<path fill-rule="evenodd" clip-rule="evenodd" d="M83.6816 15.0421C83.1652 15.5634 82.4025 15.8051 81.815 16.2885V16.4971C82.5067 17.2933 83.1321 18.0895 83.928 18.7814C84.1696 19.4023 84.7618 19.6819 85.0034 20.2696L84.7286 20.1653L80.8864 17.6392H80.6448C80.2279 18.2601 80.1616 19.0231 79.7446 19.644C79.1572 19.3312 78.3944 18.7435 78.1196 18.189L79.8489 17.0468C79.3988 16.5255 78.745 16.2174 78.1907 15.7672C78.1907 15.1084 78.9866 14.6961 79.3656 14.1416C79.4367 14.0705 79.5741 14.1416 79.6451 14.1084C80.0573 14.5587 80.6448 15.2506 81.0996 15.5966C81.4786 14.9757 81.6871 14.2459 82.0708 13.6582C82.6915 14.0042 83.2458 14.4544 83.6958 15.0421H83.6816Z" fill="$appcolor"/>
<path fill-rule="evenodd" clip-rule="evenodd" d="M107.801 15.7677C108.355 15.4549 108.838 14.8672 109.255 14.417H109.497C109.876 14.9383 110.468 15.4217 110.71 16.0094C110.122 16.4596 109.497 16.8388 108.981 17.2558C109.535 17.8435 110.298 18.1563 110.956 18.6066V18.8151C110.369 19.2274 109.985 19.8198 109.293 20.0236C108.947 19.2606 108.673 18.4644 108.256 17.7393C106.768 18.5686 105.352 19.5734 103.864 20.4407V20.2701L107.152 16.6018C106.635 16.0805 105.939 15.7345 105.318 15.2843V15.0757C105.802 14.7298 106.285 14.071 106.943 13.9004L107.806 15.7724L107.801 15.7677Z" fill="$appcolor"/>
<path fill-rule="evenodd" clip-rule="evenodd" d="M95.3741 30.0656C95.3409 30.8286 95.1657 31.4163 95.2699 32.1461C95.9616 32.004 96.5869 31.658 97.2786 31.5585C97.5866 32.1461 97.345 32.9044 97.3829 33.5632L97.2455 33.6295L95.1704 33.0087C94.7535 33.1793 95.0993 33.6675 94.8956 33.8381C94.7914 35.1177 94.5829 36.5727 94.3413 37.8191H94.2702C93.787 36.2599 93.8912 34.6675 93.4743 33.1082C92.6784 33.075 91.9156 33.6627 91.1576 33.5585C91.0865 33.004 91.0865 32.2077 91.1576 31.6532L91.2618 31.549C91.9914 31.6153 92.6121 32.0656 93.3038 32.0987C93.3369 31.4779 93.1616 30.748 93.1285 30.0229C93.787 29.8144 94.6161 29.9186 95.3078 29.9186L95.3741 30.0561V30.0656Z" fill="$appcolor"/>
<path fill-rule="evenodd" clip-rule="evenodd" d="M95.3078 50.6636C95.3078 51.3177 95.2035 52.0807 95.1372 52.7395L95.2746 52.8437L97.1791 52.256L97.3497 52.3271C97.4207 53.1897 97.3497 53.6399 97.2454 54.403C96.6911 54.3698 96.0705 54.1613 95.5825 53.9527L95.6157 53.9195C95.4783 53.7442 95.2035 53.8485 94.9951 53.8153C94.7534 55.5072 94.4455 57.2039 94.2323 58.8674H94.0949C93.7159 57.2418 93.6448 55.5451 93.3369 53.8153C93.1995 53.8485 92.7826 53.7442 92.5741 53.9195L92.6073 53.9527C92.2614 54.1944 91.6029 54.2655 91.1197 54.4409C90.8449 53.6778 91.0865 53.0238 91.0154 52.3271C91.7782 52.256 92.3988 52.7774 93.1948 52.8437C93.299 52.1186 93.0905 51.4267 93.0526 50.6968L93.1948 50.5925C93.8865 50.6304 94.6445 50.5214 95.303 50.6636H95.3078Z" fill="$appcolor"/>
</g>
</g>
<path d="M3.44823 96.0201C0.683947 93.5385 0 90.2869 0 87.5772C0 85.6661 0.655449 82.3289 3.19175 79.7903C4.90162 78.0789 7.49492 76.7383 11.8836 76.7383C13.0235 76.7383 14.6194 76.8239 16.0158 77.0806C17.0987 77.2802 17.9821 77.3658 19.0365 77.5084C19.236 77.5369 19.293 77.651 19.293 77.8222C19.293 78.0504 19.2075 78.3926 19.1505 79.4195C19.0935 80.3607 19.0935 81.9295 19.065 82.3574C19.0365 82.7852 18.9795 82.9564 18.8085 82.9564C18.6091 82.9564 18.5806 82.7567 18.5806 82.3574C18.5806 81.245 18.1246 80.0755 17.3837 79.448C16.3862 78.5923 14.1919 77.8222 11.6841 77.8222C7.89389 77.8222 6.12703 78.9346 5.1296 79.9044C3.04926 81.901 2.5648 84.4396 2.5648 87.349C2.5648 92.7969 6.75398 97.7885 12.8525 97.7885C14.9898 97.7885 16.6712 97.5318 17.8111 96.3624C18.4096 95.7348 18.7801 94.4798 18.8655 93.9664C18.9225 93.6526 18.9795 93.5385 19.1505 93.5385C19.293 93.5385 19.35 93.7382 19.35 93.9664C19.35 94.1661 19.008 96.6476 18.7231 97.6174C18.5521 98.1593 18.4951 98.2164 17.9821 98.4446C16.8422 98.9009 14.6764 99.1006 12.8525 99.1006C8.57784 99.1006 5.69956 98.0452 3.44823 96.0201Z" fill="white"/>
<path d="M27.6428 91.7426C27.5004 91.7426 27.4149 91.8282 27.3579 91.9708L26.104 95.5362C25.819 96.3349 25.6195 97.105 25.6195 97.5614C25.6195 98.0748 25.933 98.303 26.5599 98.303H26.7594C27.0159 98.303 27.1014 98.3886 27.1014 98.5027C27.1014 98.6453 26.8734 98.7023 26.6739 98.7023C26.047 98.7023 24.7361 98.6168 24.4226 98.6168C24.1376 98.6168 22.8837 98.7023 21.6868 98.7023C21.3733 98.7023 21.2308 98.6453 21.2308 98.5027C21.2308 98.3886 21.3448 98.303 21.5728 98.303C21.7153 98.303 21.9718 98.303 22.1428 98.2745C23.3682 98.1604 23.8526 97.2191 24.3371 96.0211L30.0367 80.9893C30.3501 80.1621 30.4356 80.0195 30.6351 80.0195C30.7776 80.0195 30.8916 80.1336 31.2051 80.9323C31.604 81.8735 35.4797 91.8282 36.9901 95.3936C37.9305 97.647 38.757 98.0178 39.156 98.1604C39.5264 98.303 39.9254 98.303 40.1249 98.303C40.3244 98.303 40.4668 98.3601 40.4668 98.5027C40.4668 98.6453 40.3529 98.7023 40.0394 98.7023C39.7544 98.7023 37.6171 98.7023 35.7077 98.6453C35.1663 98.6168 34.9953 98.5882 34.9953 98.4456C34.9953 98.3601 35.0808 98.2745 35.1948 98.246C35.3087 98.1889 35.4797 98.0463 35.3087 97.6184L33.0574 91.8852C33.0004 91.7997 32.9434 91.7426 32.8294 91.7426H27.6428ZM32.4875 90.7443C32.6015 90.7443 32.6015 90.6587 32.573 90.5732L30.3216 84.2695C30.1791 83.8702 30.1506 83.8702 30.0082 84.2695L27.8708 90.5732C27.8138 90.6873 27.8708 90.7443 27.9278 90.7443H32.4875Z" fill="white"/>
<path d="M43.1742 81.189C43.1742 80.3048 43.2596 80.0195 43.4876 80.0195C43.6871 80.0195 44.1716 80.59 44.3711 80.7897C44.6275 81.0749 48.5887 85.1252 52.5784 89.2041C54.8013 91.3718 57.651 94.3097 58.392 94.9943L58.0785 83.1286C58.05 81.5883 57.879 81.0749 57.1096 80.8752C56.6251 80.7897 56.1977 80.7611 55.9982 80.7611C55.7132 80.7611 55.6562 80.647 55.6562 80.5329C55.6562 80.3903 55.8842 80.3618 56.1692 80.3618C57.3946 80.3618 58.5915 80.4474 58.8479 80.4474C59.1329 80.4474 60.0164 80.3618 61.1278 80.3618C61.4412 80.3618 61.5267 80.3903 61.5267 80.5329C61.5267 80.647 61.4412 80.7326 61.2703 80.7611C61.0993 80.7897 60.8713 80.7897 60.5578 80.8467C59.9024 80.9893 59.7029 81.2746 59.7029 82.986L59.6459 97.3047C59.6459 98.7309 59.5889 98.8735 59.3894 98.8735C59.1899 98.8735 58.9049 98.6738 57.5086 97.3617C57.3946 97.3047 53.4334 93.3685 50.9541 90.944C47.9903 87.8635 45.1405 84.897 44.4281 84.1554L44.7985 95.3081C44.8555 97.2762 45.0265 98.0178 45.739 98.1889C46.1949 98.303 46.6794 98.303 46.9074 98.303C47.1354 98.303 47.2493 98.3886 47.2493 98.5027C47.2493 98.6453 47.1069 98.7023 46.7934 98.7023C45.2545 98.7023 44.2286 98.6168 44.0291 98.6168C43.8296 98.6168 42.7752 98.7023 41.5498 98.7023C41.2933 98.7023 41.1223 98.6738 41.1223 98.5027C41.1223 98.3886 41.2363 98.303 41.5213 98.303C41.7208 98.303 42.0342 98.303 42.4047 98.1889C43.0317 97.9892 43.1742 97.2191 43.1742 95.1369C43.1742 81.5313 43.2027 85.9239 43.1742 81.189Z" fill="white"/>
<path d="M73.4103 91.6563C73.4103 93.8526 73.4388 95.8778 73.5528 96.9331C73.6383 97.6177 73.6953 98.017 74.4078 98.1881C74.7497 98.2737 75.2912 98.3022 75.5192 98.3022C75.7472 98.3022 75.8611 98.3878 75.8611 98.4734C75.8611 98.616 75.7757 98.7016 75.4907 98.7016C74.0373 98.7016 72.3559 98.616 72.2419 98.616C72.1279 98.616 70.4466 98.7016 69.7056 98.7016C69.3921 98.7016 69.2782 98.6445 69.2782 98.5019C69.2782 98.4163 69.3636 98.3022 69.5916 98.3022C69.8196 98.3022 69.9906 98.3022 70.2186 98.2737C70.76 98.1881 70.8455 97.8459 70.9595 96.8761C71.0735 95.8492 71.0735 93.7955 71.0735 91.6563V81.4735C70.1331 81.4735 68.6227 81.4735 67.4828 81.502C65.6589 81.5305 65.26 81.8157 64.861 82.4147C64.6045 82.8141 64.4905 83.1563 64.4335 83.2989C64.348 83.4986 64.291 83.5271 64.177 83.5271C64.0631 83.5271 64.0346 83.413 64.0346 83.2704C64.0061 83.0993 64.4335 81.2167 64.6045 80.4466C64.69 80.1043 64.7755 79.9902 64.861 79.9902C65.0605 79.9902 65.6019 80.2469 66.1149 80.304C67.1123 80.4181 67.9103 80.4466 67.9388 80.4466H77.286C78.084 80.4466 78.9389 80.3896 79.3379 80.304C79.7083 80.2184 79.7938 80.1899 79.8793 80.1899C79.9933 80.1899 80.0503 80.3325 80.0503 80.4466C80.0503 81.2453 79.9933 83.1278 79.9933 83.356C79.9933 83.6127 79.8793 83.6983 79.7938 83.6983C79.6514 83.6983 79.5944 83.5842 79.5944 83.356C79.5944 83.2704 79.5944 83.2419 79.5659 82.9567C79.4519 81.8157 79.0814 81.5305 76.2031 81.502C75.1202 81.502 74.2368 81.4735 73.4103 81.4735V91.6563Z" fill="white"/>
<path d="M85.1514 87.3773C85.1514 83.6408 85.1514 82.9562 85.0944 82.1861C85.0374 81.3874 84.8379 80.9881 84.0115 80.817C83.8405 80.7884 83.5555 80.7599 83.3276 80.7599C83.1281 80.7599 82.9571 80.6744 82.9571 80.5888C82.9571 80.4176 83.0996 80.3606 83.3846 80.3606C83.9545 80.3606 84.724 80.4176 86.3198 80.4462C86.4623 80.4462 91.5349 80.4462 92.1049 80.4176C92.6748 80.3891 92.9883 80.3606 93.2163 80.275C93.3873 80.218 93.4158 80.1895 93.5298 80.1895C93.5868 80.1895 93.6438 80.2465 93.6438 80.3891C93.6438 80.5603 93.4728 80.9596 93.4158 81.6727C93.3873 82.1576 93.3588 82.6139 93.3303 83.1559C93.3303 83.4126 93.2733 83.5837 93.1308 83.5837C92.9883 83.5837 92.9313 83.4696 92.9313 83.27C92.9028 82.8421 92.8173 82.5569 92.7318 82.3572C92.5609 81.7868 92.3044 81.5871 90.8795 81.5015C90.509 81.473 87.6877 81.4445 87.6307 81.4445C87.5452 81.4445 87.4882 81.5015 87.4882 81.6727V88.1475C87.4882 88.3186 87.5167 88.4327 87.6592 88.4327C88.0012 88.4327 90.908 88.4042 91.5064 88.3471C92.1619 88.3186 92.5893 88.233 92.8173 87.9193C92.9313 87.7481 93.0168 87.6911 93.1308 87.6911C93.1878 87.6911 93.2448 87.7196 93.2448 87.8622C93.2448 88.0049 93.1308 88.5468 93.0453 89.374C92.9598 90.1726 92.9598 90.7431 92.9313 91.1139C92.9028 91.3421 92.8458 91.4277 92.7318 91.4277C92.5894 91.4277 92.5609 91.2565 92.5609 91.0569C92.5609 90.8857 92.5324 90.6005 92.4754 90.3723C92.3614 90.0015 92.1904 89.6022 91.1075 89.5166C90.452 89.4596 88.1437 89.4025 87.6877 89.4025C87.5167 89.4025 87.4882 89.4881 87.4882 89.6022V91.6844C87.4882 92.5686 87.4597 95.0787 87.4882 95.5636C87.5452 96.6189 87.6877 97.1609 88.2862 97.4176C88.7136 97.6172 89.3976 97.6743 90.3665 97.6743C90.908 97.6743 91.8199 97.7028 92.5324 97.5031C93.3873 97.2464 93.5868 96.676 93.8148 95.6206C93.8718 95.3354 93.9572 95.2213 94.0712 95.2213C94.2422 95.2213 94.2422 95.478 94.2422 95.6491C94.2422 95.8488 94.0142 97.6458 93.9287 98.1307C93.8148 98.7011 93.6153 98.7582 92.6748 98.7582C90.794 98.7582 89.996 98.7011 88.9986 98.7011C88.0012 98.6726 86.6903 98.6156 85.6359 98.6156C84.9804 98.6156 84.439 98.7011 83.755 98.7011C83.4985 98.7011 83.3561 98.6441 83.3561 98.5015C83.3561 98.3874 83.47 98.3018 83.6125 98.3018C83.7835 98.3018 83.983 98.2733 84.1825 98.2162C84.6955 98.1021 85.0374 97.7313 85.0944 95.9629C85.1229 94.9931 85.1514 93.8236 85.1514 91.6559V87.3773Z" fill="white"/>
<path d="M100.027 87.3781C100.027 83.613 100.027 82.9284 99.9703 82.1583C99.9133 81.3882 99.7138 80.9603 98.8304 80.7892C98.6594 80.7607 98.3744 80.7321 98.1464 80.7321C97.9469 80.7321 97.8329 80.6751 97.8329 80.561C97.8329 80.4469 97.9184 80.3613 98.1749 80.3613C99.4003 80.3613 101.139 80.4469 101.196 80.4469C101.452 80.4469 103.39 80.3613 104.188 80.3613C105.784 80.3613 107.522 80.504 108.862 81.4452C109.403 81.8446 110.571 82.9855 110.571 84.9251C110.571 86.4939 109.802 88.4905 107.551 90.316C109.631 92.8831 111.341 94.9938 112.794 96.5056C114.162 97.9032 115.017 98.1314 115.815 98.2455C116.015 98.274 116.613 98.3025 116.698 98.3025C116.926 98.3025 117.012 98.3881 117.012 98.5022C117.012 98.6448 116.898 98.7019 116.499 98.7019H114.504C113.165 98.7019 112.538 98.6163 111.911 98.3596C110.714 97.8462 109.859 96.5626 108.377 94.6515C107.266 93.2824 106.126 91.7422 105.641 91.1432C105.527 91.0291 105.47 90.972 105.299 90.972L102.364 90.9435C102.25 90.9435 102.222 90.972 102.222 91.0861V91.4854C102.222 93.7673 102.222 95.8495 102.364 96.8764C102.45 97.5609 102.535 98.1314 103.476 98.2455C103.76 98.274 104.074 98.3025 104.302 98.3025C104.558 98.3025 104.672 98.3881 104.672 98.4737C104.672 98.6163 104.558 98.7019 104.273 98.7019C102.792 98.7019 101.196 98.6163 101.082 98.6163C100.626 98.6163 99.3718 98.7019 98.6024 98.7019C98.3174 98.7019 98.2034 98.6448 98.2034 98.4737C98.2034 98.3881 98.3744 98.3025 98.5454 98.3025C98.7449 98.3025 98.9444 98.3025 99.1723 98.2455C99.6568 98.1599 99.8278 97.8462 99.9133 97.1616C100.056 96.1348 100.027 93.7958 100.027 91.6566V87.3781ZM102.222 89.4032C102.222 89.5459 102.25 89.6885 102.364 89.7455C102.735 89.9452 103.874 90.1163 104.9 90.1163C105.499 90.1163 106.211 90.0878 106.81 89.6885C107.665 89.1465 108.235 87.8915 108.235 86.066C108.235 82.957 106.582 81.2456 104.045 81.2456C103.333 81.2456 102.735 81.3026 102.393 81.3882C102.307 81.4167 102.222 81.5023 102.222 81.6449V89.4032Z" fill="white"/>
<path d="M118.494 87.3781C118.494 83.6415 118.494 82.9284 118.437 82.1583C118.38 81.3882 118.18 80.9888 117.325 80.8177C117.097 80.7892 116.699 80.7607 116.642 80.7607C116.385 80.7607 116.271 80.6751 116.271 80.561C116.271 80.4184 116.442 80.3613 116.699 80.3613C117.895 80.3613 119.605 80.4469 119.662 80.4469C120.346 80.4469 121.287 80.3613 122.398 80.3613C126.673 80.3613 127.528 82.7288 127.528 83.9553C127.528 86.066 126.331 87.4066 125.134 88.3479C127.043 88.9183 129.494 90.6583 129.494 93.4536C129.494 96.2488 127.357 98.7589 123.025 98.7589C122.569 98.7589 121.999 98.7019 121.258 98.7019C120.46 98.6448 119.776 98.6163 119.662 98.6163C118.779 98.6163 118.038 98.7019 117.097 98.7019C116.841 98.7019 116.699 98.6448 116.699 98.5307C116.699 98.4451 116.727 98.3025 117.097 98.3025C117.297 98.3025 117.382 98.3025 117.61 98.2455C118.095 98.1599 118.266 97.5609 118.351 96.8764C118.494 95.821 118.494 93.8814 118.494 91.6566V87.3781ZM120.717 87.8915C120.717 88.0912 120.774 88.1197 120.859 88.1767C121.03 88.2053 121.344 88.2623 122.284 88.2623C123.737 88.2623 124.165 88.1767 124.706 87.5777C125.162 87.0358 125.447 86.2371 125.447 85.2959C125.447 83.3278 124.564 81.1315 122.142 81.1315C121.914 81.1315 121.315 81.1885 121.059 81.2741C120.802 81.3311 120.717 81.3882 120.717 81.5308V87.8915ZM120.717 90.3445C120.717 92.1415 120.717 95.279 120.745 95.5072C120.831 96.7623 120.802 97.1331 121.657 97.5039C122.341 97.8462 123.481 97.8747 123.766 97.8747C124.991 97.8747 127.129 97.2757 127.129 94.6515C127.129 93.1968 126.616 91.0005 124.678 89.6885C123.823 89.1751 123.31 89.118 122.74 89.061C122.256 89.0039 121.258 89.0039 120.859 89.061C120.774 89.061 120.717 89.0895 120.717 89.2321V90.3445Z" fill="white"/>
<path d="M136.618 90.7724C136.618 94.2522 137.274 95.7354 138.357 96.7052C139.582 97.7891 140.95 98.0173 142.119 98.0173C143.6 98.0173 144.94 97.618 146.023 96.3629C147.163 95.0509 147.419 92.8831 147.419 90.4016V87.3781C147.419 83.6415 147.419 82.9855 147.362 82.2154C147.305 81.3882 147.22 80.9603 146.308 80.8177C146.108 80.7892 145.766 80.7607 145.51 80.7607C145.339 80.7607 145.225 80.6751 145.225 80.5895C145.225 80.4184 145.367 80.3613 145.624 80.3613C146.849 80.3613 148.274 80.4469 148.388 80.4469C148.531 80.4469 149.756 80.3613 150.554 80.3613C150.839 80.3613 150.953 80.4184 150.953 80.561C150.953 80.6751 150.839 80.7607 150.668 80.7607C150.497 80.7607 150.44 80.7607 150.155 80.7892C149.357 80.8748 149.243 81.3882 149.186 82.2154C149.158 82.9855 149.158 83.6415 149.158 87.3781V89.9167C149.158 92.4838 148.873 95.5643 146.849 97.3042C144.997 98.873 143.173 99.0156 141.634 99.0156C140.836 99.0156 138.157 99.0156 136.305 97.3042C135.08 96.1633 134.196 94.4519 134.196 90.915V87.3781C134.196 83.613 134.196 82.957 134.111 82.1868C134.082 81.4167 133.94 80.9318 133.056 80.8177C132.885 80.7892 132.543 80.7607 132.315 80.7607C132.116 80.7607 132.002 80.6751 132.002 80.5895C132.002 80.4184 132.116 80.3613 132.429 80.3613C133.655 80.3613 135.194 80.4469 135.393 80.4469C135.621 80.4469 137.302 80.3613 138.072 80.3613C138.385 80.3613 138.471 80.4184 138.471 80.561C138.471 80.7036 138.271 80.7607 138.129 80.7607C137.958 80.7607 137.73 80.7892 137.502 80.8177C136.818 80.9033 136.704 81.3882 136.647 82.1868C136.618 82.957 136.618 83.613 136.618 87.3781V90.7724Z" fill="white"/>
<path d="M156.453 87.3781C156.453 83.613 156.453 82.9284 156.396 82.1583C156.339 81.3882 156.139 80.9603 155.256 80.7892C155.085 80.7607 154.8 80.7321 154.572 80.7321C154.373 80.7321 154.259 80.6751 154.259 80.561C154.259 80.4469 154.344 80.3613 154.601 80.3613C155.826 80.3613 157.564 80.4469 157.621 80.4469C157.878 80.4469 159.816 80.3613 160.614 80.3613C162.209 80.3613 163.948 80.504 165.287 81.4452C165.829 81.8446 166.997 82.9855 166.997 84.9251C166.997 86.4939 166.228 88.4905 163.976 90.316C166.057 92.8831 167.767 94.9938 169.22 96.5056C170.588 97.9032 171.443 98.1314 172.241 98.2455C172.44 98.274 173.039 98.3025 173.124 98.3025C173.352 98.3025 173.438 98.3881 173.438 98.5022C173.438 98.6448 173.324 98.7019 172.925 98.7019H170.93C169.59 98.7019 168.963 98.6163 168.337 98.3596C167.14 97.8462 166.285 96.5626 164.803 94.6515C163.691 93.2824 162.551 91.7422 162.067 91.1432C161.953 91.0291 161.896 90.972 161.725 90.972L158.79 90.9435C158.676 90.9435 158.647 90.972 158.647 91.0861V91.4854C158.647 93.7673 158.647 95.8495 158.79 96.8764C158.875 97.5609 158.961 98.1314 159.901 98.2455C160.186 98.274 160.5 98.3025 160.728 98.3025C160.984 98.3025 161.098 98.3881 161.098 98.4737C161.098 98.6163 160.984 98.7019 160.699 98.7019C159.217 98.7019 157.621 98.6163 157.507 98.6163C157.051 98.6163 155.797 98.7019 155.028 98.7019C154.743 98.7019 154.629 98.6448 154.629 98.4737C154.629 98.3881 154.8 98.3025 154.971 98.3025C155.171 98.3025 155.37 98.3025 155.598 98.2455C156.082 98.1599 156.253 97.8462 156.339 97.1616C156.481 96.1348 156.453 93.7958 156.453 91.6566V87.3781ZM158.647 89.4032C158.647 89.5459 158.676 89.6885 158.79 89.7455C159.16 89.9452 160.3 90.1163 161.326 90.1163C161.925 90.1163 162.637 90.0878 163.235 89.6885C164.09 89.1465 164.66 87.8915 164.66 86.066C164.66 82.957 163.007 81.2456 160.471 81.2456C159.759 81.2456 159.16 81.3026 158.818 81.3882C158.733 81.4167 158.647 81.5023 158.647 81.6449V89.4032Z" fill="white"/>
<path d="M177.712 92.4838C177.712 91.1146 177.513 90.6012 177.085 89.8596C176.914 89.5459 173.609 84.1549 172.725 82.9284C171.956 81.8445 171.671 81.5023 171.272 81.1885C170.873 80.9033 170.502 80.7892 169.932 80.7607C169.761 80.7607 169.619 80.6751 169.619 80.5325C169.619 80.4469 169.733 80.3613 169.961 80.3613C170.417 80.3613 172.583 80.4469 172.64 80.4469C172.811 80.4469 173.751 80.3613 174.806 80.3613C175.09 80.3613 175.176 80.4469 175.176 80.5325C175.176 80.6466 175.09 80.7036 174.862 80.7607C174.464 80.8462 174.407 80.9888 174.407 81.217C174.407 81.5023 174.578 81.7875 174.777 82.1583C175.147 82.8714 178.909 88.9183 179.337 89.6314C179.793 88.6331 182.984 83.4133 183.383 82.7003C183.925 81.759 184.039 81.5023 184.039 81.1885C184.039 80.8177 183.697 80.8177 183.383 80.7607C183.155 80.7321 183.07 80.6466 183.07 80.5325C183.07 80.4469 183.127 80.3613 183.412 80.3613C184.096 80.3613 184.694 80.4469 185.15 80.4469C185.521 80.4469 187.174 80.3613 187.658 80.3613C187.914 80.3613 188 80.4469 188 80.5325C188 80.6751 187.857 80.7607 187.658 80.7607C187.06 80.7892 186.632 80.8462 186.233 81.1315C185.806 81.4167 185.635 81.6734 185.179 82.3009C183.526 84.5828 180.762 89.2321 180.334 90.2304C179.992 91.1146 180.049 91.7422 180.049 92.4838V94.566C180.049 94.7656 180.049 95.821 180.106 96.8478C180.163 97.5324 180.22 98.0173 181.104 98.1884C181.474 98.274 181.958 98.3025 182.158 98.3025C182.386 98.3025 182.471 98.3881 182.471 98.4737C182.471 98.6163 182.386 98.7019 182.129 98.7019C180.705 98.7019 178.938 98.6163 178.852 98.6163C178.795 98.6163 177.085 98.7019 176.287 98.7019C176.002 98.7019 175.888 98.6163 175.888 98.4737C175.888 98.3881 175.974 98.3025 176.173 98.3025C176.401 98.3025 176.658 98.274 176.886 98.217C177.37 98.1314 177.57 97.5324 177.627 96.8478C177.712 95.821 177.712 94.7942 177.712 94.566V92.4838Z" fill="white"/>
<path d="M35.3373 129.231C34.9383 129.031 34.9098 128.917 34.9098 128.147C34.9098 126.721 35.0238 125.58 35.0523 125.124C35.0808 124.81 35.1378 124.667 35.2803 124.667C35.4512 124.667 35.4797 124.753 35.4797 124.981C35.4797 125.238 35.4797 125.637 35.5652 126.036C35.9927 128.147 37.8736 128.946 39.7829 128.946C42.5187 128.946 43.8581 126.978 43.8581 125.152C43.8581 123.184 43.0317 122.043 40.5809 120.018L39.2985 118.962C36.2777 116.481 35.5937 114.712 35.5937 112.773C35.5937 109.721 37.8736 107.639 41.4928 107.639C42.6042 107.639 43.4306 107.753 44.1431 107.924C44.6845 108.038 44.9125 108.067 45.1405 108.067C45.3685 108.067 45.4255 108.124 45.4255 108.266C45.4255 108.409 45.3115 109.35 45.3115 111.29C45.3115 111.746 45.2545 111.946 45.112 111.946C44.941 111.946 44.9125 111.803 44.884 111.575C44.8555 111.233 44.6845 110.462 44.5135 110.149C44.3426 109.835 43.5731 108.637 40.9513 108.637C38.985 108.637 37.4461 109.863 37.4461 111.946C37.4461 113.572 38.187 114.598 40.9228 116.738L41.7208 117.365C45.0835 120.018 45.8814 121.786 45.8814 124.068C45.8814 125.238 45.4255 127.405 43.4591 128.803C42.2337 129.659 40.6948 130.001 39.156 130.001C37.8166 130.001 36.5057 129.801 35.3373 129.231Z" fill="white"/>
<path d="M52.721 127.319C50.2986 125.208 49.6717 122.413 49.6717 120.045C49.6717 118.448 50.2986 115.624 52.55 113.457C54.0889 111.973 56.3972 110.918 60.2159 110.918C61.5268 110.918 62.5812 111.032 63.9776 111.232C64.8895 111.374 65.8014 111.517 66.4854 111.545C66.7134 111.545 66.7419 111.688 66.7419 111.831C66.7419 112.059 66.6564 112.316 66.5994 113.228C66.5709 114.027 66.5709 115.51 66.5424 115.853C66.5139 116.252 66.4569 116.394 66.3144 116.394C66.1149 116.394 66.0864 116.223 66.0864 115.853C66.0864 115.025 65.6875 113.913 64.975 113.371C64.1201 112.629 62.1252 111.916 59.9309 111.916C56.7676 111.916 55.3143 112.801 54.4593 113.571C52.607 115.254 52.1795 117.307 52.1795 119.817C52.1795 124.552 56.0267 128.717 61.0423 128.717C62.9802 128.717 64.4051 128.517 65.4025 127.547C65.9154 127.005 66.2004 126.292 66.3429 125.493C66.3999 125.208 66.4854 125.066 66.6564 125.066C66.7989 125.066 66.7989 125.265 66.7989 125.465C66.7989 125.693 66.4284 128.003 66.2289 128.631C66.0579 129.087 65.9724 129.173 65.5735 129.344C64.576 129.772 62.6667 129.915 61.0708 129.915C57.3091 129.915 54.7443 129.059 52.721 127.319Z" fill="white"/>
<path d="M85.2939 118.906C85.3794 118.906 85.4649 118.906 85.4649 118.763V118.25C85.4649 114.485 85.4649 113.829 85.4079 113.059C85.3509 112.289 85.2369 111.889 84.2965 111.718C84.097 111.69 83.812 111.661 83.584 111.661C83.3846 111.661 83.2421 111.575 83.2421 111.461C83.2421 111.29 83.3846 111.262 83.641 111.262C84.8379 111.262 86.5193 111.347 86.6333 111.347C86.7473 111.347 88.3432 111.262 89.1981 111.262C89.4831 111.262 89.6541 111.29 89.6541 111.461C89.6541 111.547 89.5686 111.661 89.3406 111.661C89.1696 111.661 88.9416 111.69 88.7706 111.718C88.0012 111.832 87.8872 112.289 87.8302 113.087C87.8017 113.857 87.8017 114.513 87.8017 118.278V122.557C87.8017 124.896 87.8017 126.75 87.9157 127.777C88.0012 128.461 88.1437 129.032 88.8846 129.117C89.2551 129.174 89.6256 129.203 89.8821 129.203C90.11 129.203 90.2525 129.288 90.2525 129.403C90.2525 129.545 90.11 129.602 89.8251 129.602C88.4002 129.602 86.7473 129.517 86.6048 129.517C86.4908 129.517 84.8379 129.602 84.0685 129.602C83.7835 129.602 83.641 129.545 83.641 129.374C83.641 129.288 83.7265 129.203 83.9545 129.203C84.1825 129.203 84.382 129.203 84.61 129.146C85.0944 129.06 85.2369 128.433 85.3224 127.777C85.4649 126.75 85.4649 124.953 85.4649 122.643V120.104C85.4649 119.99 85.3794 119.933 85.2939 119.933H74.9492C74.8637 119.933 74.8067 119.961 74.8067 120.104V122.643C74.8067 124.953 74.8067 126.807 74.9492 127.834C75.0347 128.461 75.1772 129.032 75.9181 129.117C76.2886 129.174 76.7161 129.203 76.9441 129.203C77.1435 129.203 77.286 129.288 77.286 129.403C77.286 129.517 77.172 129.602 76.9156 129.602C75.4622 129.602 73.7808 129.517 73.6383 129.517C73.5528 129.517 71.8145 129.602 71.0735 129.602C70.7885 129.602 70.6175 129.545 70.6175 129.403C70.6175 129.317 70.6745 129.203 70.931 129.203C71.159 129.203 71.387 129.174 71.615 129.117C72.1279 129.003 72.2419 128.461 72.3274 127.834C72.4984 126.807 72.4699 124.896 72.4699 122.557V118.336C72.4699 114.57 72.4699 113.829 72.4129 113.059C72.3559 112.317 72.1564 111.775 71.33 111.69C71.0735 111.661 70.7885 111.633 70.5605 111.633C70.3611 111.633 70.2471 111.547 70.2471 111.461C70.2471 111.29 70.3896 111.262 70.6745 111.262C71.8999 111.262 73.2678 111.347 73.6383 111.347C73.7523 111.347 75.4052 111.262 76.2031 111.262C76.4881 111.262 76.6306 111.319 76.6306 111.461C76.6306 111.575 76.5166 111.633 76.3456 111.633C76.1746 111.633 76.0891 111.633 75.7756 111.69C75.0632 111.804 74.8922 112.289 74.8352 113.087C74.8067 113.857 74.8067 114.485 74.8067 118.25V118.763C74.8067 118.906 74.8922 118.906 74.9777 118.906H85.2939Z" fill="white"/>
<path d="M93.4443 120.388C93.4443 116.594 96.3795 110.918 103.419 110.918C109.061 110.918 113.364 114.284 113.364 120.017C113.364 125.75 109.346 129.915 103.276 129.915C96.2941 129.915 93.4443 124.723 93.4443 120.388ZM110.685 120.73C110.685 114.997 107.152 111.802 103.248 111.802C99.3433 111.802 96.0946 114.255 96.0946 119.646C96.0946 125.037 99.2008 128.945 103.988 128.945C105.898 128.945 110.685 127.975 110.685 120.73Z" fill="white"/>
<path d="M116.955 120.388C116.955 116.594 119.89 110.918 126.929 110.918C132.572 110.918 136.875 114.284 136.875 120.017C136.875 125.75 132.857 129.915 126.787 129.915C119.805 129.915 116.955 124.723 116.955 120.388ZM134.196 120.73C134.196 114.997 130.662 111.802 126.758 111.802C122.854 111.802 119.605 114.255 119.605 119.646C119.605 125.037 122.712 128.945 127.499 128.945C129.408 128.945 134.196 127.975 134.196 120.73Z" fill="white"/>
<path d="M144.94 122.614C144.94 125.894 145.054 127.549 145.538 128.005C145.994 128.404 146.564 128.575 148.531 128.575C149.784 128.575 150.924 128.575 151.551 127.777C151.836 127.349 152.036 126.778 152.093 126.351C152.121 126.122 152.178 126.008 152.321 126.008C152.435 126.008 152.492 126.094 152.492 126.379C152.492 126.664 152.321 128.29 152.15 128.946C151.979 129.517 152.007 129.659 150.639 129.659C148.702 129.659 146.564 129.517 143.714 129.517C142.774 129.517 142.204 129.602 141.207 129.602C140.922 129.602 140.751 129.545 140.751 129.374C140.751 129.288 140.836 129.203 141.064 129.203C141.292 129.203 141.52 129.203 141.748 129.146C142.233 129.06 142.404 128.49 142.489 127.805C142.66 126.721 142.603 124.753 142.603 122.557V118.278C142.603 114.513 142.603 113.886 142.546 113.116C142.489 112.317 142.375 111.804 141.406 111.69C141.235 111.661 140.922 111.661 140.694 111.661C140.494 111.661 140.38 111.575 140.38 111.461C140.38 111.319 140.523 111.262 140.808 111.262C142.005 111.262 143.714 111.347 143.771 111.347C144.17 111.347 145.909 111.262 146.707 111.262C146.992 111.262 147.077 111.347 147.077 111.461C147.077 111.575 146.935 111.661 146.764 111.661C146.564 111.661 146.279 111.69 145.994 111.718C145.196 111.832 145.025 112.289 144.968 113.116C144.911 113.886 144.94 114.513 144.94 118.278V122.614Z" fill="white"/>
</g>
<defs>
<clipPath id="clip0_6128_7734">
<rect width="188" height="130" fill="white"/>
</clipPath>
<clipPath id="clip1_6128_7734">
<rect width="53" height="72" fill="white" transform="translate(68)"/>
</clipPath>
<clipPath id="clip2_6128_7734">
<rect width="53" height="72" fill="white" transform="translate(68)"/>
</clipPath>
</defs>
</svg>
