<svg width="38" height="52" viewBox="0 0 38 52" fill="none" xmlns="http://www.w3.org/2000/svg">
<g clip-path="url(#clip0_6538_9716)">
<g clip-path="url(#clip1_6538_9716)">
<path fill-rule="evenodd" clip-rule="evenodd" d="M37.6603 35.0464C37.409 36.395 37.0149 37.8463 36.0469 39.0203V39.0956C34.1616 41.3444 31.631 42.6211 29.3246 44.3223C26.9434 46.0235 18.6315 51.7978 18.6315 51.7978C17.4901 51.1714 7.88739 44.3223 7.88739 44.3223C5.92744 42.847 4.04221 41.5224 2.12981 40.1225C1.38592 39.3489 0.716746 38.4247 0.343098 37.4218L0.193638 36.9221L0.169861 0.170898L37.8302 0.194858C37.8302 0.194858 37.8064 28.7449 37.6569 35.0464H37.6603Z" fill="$appcolor"/>
<path d="M18.6382 52L18.5465 51.9487C17.4086 51.3223 8.17949 44.7401 7.78547 44.4629C6.54224 43.5284 5.31599 42.6419 4.13051 41.7862C3.43077 41.2796 2.73103 40.7765 2.02789 40.2596C1.15491 39.356 0.523107 38.401 0.18003 37.4803L0.0203808 36.9189L0 0L38 0.0273828V0.198526C38 0.482622 37.9762 28.8239 37.8268 35.0535V35.0808C37.5856 36.3713 37.2052 37.8568 36.2133 39.0856V39.1609L36.1725 39.2088C34.8206 40.8244 33.112 41.9608 31.4612 43.0561C30.7852 43.5045 30.0889 43.97 29.4231 44.4595C27.0657 46.1435 18.8081 51.8802 18.7266 51.9384L18.6416 51.9966L18.6382 52ZM0.363458 36.8984L0.506123 37.3741C0.828819 38.2401 1.43345 39.154 2.25208 40.0063C2.93144 40.5026 3.63118 41.0058 4.33092 41.5124C5.5198 42.3681 6.74604 43.2546 7.98927 44.189C8.08099 44.2541 17.1606 50.7301 18.6213 51.5995C19.5214 50.9731 27.0012 45.7704 29.2261 44.1856C29.8986 43.6893 30.5984 43.2238 31.2777 42.772C32.9659 41.6493 34.5624 40.5882 35.877 39.0342V38.9589L35.9178 38.911C36.8892 37.737 37.2595 36.2891 37.4939 35.0261C37.6365 29.0258 37.6637 2.74855 37.6671 0.362823L0.33968 0.342285L0.363458 36.8949V36.8984Z" fill="white"/>
<path fill-rule="evenodd" clip-rule="evenodd" d="M24.4094 4.34739C25.5269 6.37372 25.425 8.7971 24.1376 10.6968C22.8468 12.6204 20.6151 13.548 18.2849 13.3974C15.9513 13.1955 13.7944 11.5457 12.9757 9.34818C12.1809 7.07198 12.704 4.67256 14.3141 3.02275C16.1246 1.12306 19.1511 0.548024 21.5595 1.67414C22.7008 2.17388 23.7946 3.24866 24.4128 4.34739H24.4094Z" fill="#B5D2EE"/>
<path fill-rule="evenodd" clip-rule="evenodd" d="M24.5589 4.25829C23.8829 3.06372 22.8605 2.10874 21.6308 1.51316C19.1512 0.35624 16.094 0.938125 14.1884 2.89942C12.5512 4.58347 11.9465 7.19168 12.8127 9.40969C13.6993 11.679 15.8359 13.3597 18.268 13.5719C19.3346 13.6643 20.5099 13.4623 21.5017 13.0585C22.6295 12.5998 23.5976 11.8091 24.2803 10.7959C25.5983 8.85861 25.7206 6.30516 24.5589 4.26172V4.25829ZM18.2952 13.2227C15.9785 12.9866 13.9846 11.4668 13.132 9.28304C12.3508 7.15745 12.8569 4.76488 14.433 3.14587C16.2809 1.27699 19.0866 0.753291 21.478 1.83149C22.6431 2.39626 23.6112 3.30332 24.2532 4.43286C25.3401 6.37019 25.2382 8.76277 23.9882 10.5974C23.4006 11.4668 22.6057 12.1548 21.6614 12.6032C20.6084 13.0927 19.4501 13.3083 18.2952 13.2227Z" fill="#B5D2EE"/>
<path fill-rule="evenodd" clip-rule="evenodd" d="M23.9373 4.42278C25.1058 6.3738 24.8782 9.02309 23.4413 10.8235C22.1268 12.3501 20.0411 13.2229 17.8604 12.8225C15.8495 12.4494 14.0152 10.8475 13.3936 8.89645C12.7482 6.92146 13.2713 4.94647 14.5587 3.47122C16.0737 1.69818 18.7775 1.04784 21.033 1.94805C22.2253 2.42383 23.2681 3.2727 23.9373 4.42278Z" fill="$appcolor"/>
<path fill-rule="evenodd" clip-rule="evenodd" d="M20.588 2.79632C20.1906 3.56988 19.1749 4.52144 19.4229 5.49695C19.7728 6.24656 20.1193 7.07146 19.9698 7.94771L20.0207 7.99564C20.194 7.51986 20.2925 7.09885 20.5405 6.64703C21.3115 5.82212 21.9297 4.6207 21.4848 3.52196L21.3115 3.04619C22.7484 3.74787 23.815 5.34635 23.8897 7.07146C23.9407 8.01959 23.618 9.29632 22.9726 10.1452C22.7246 10.4464 22.3272 10.6689 21.906 10.6689C21.3591 10.6449 20.9617 10.3437 20.7137 9.89532C20.4419 9.39558 20.9107 8.7692 20.2178 8.59464C19.8713 8.54329 19.6743 8.91981 19.4229 9.07041C19.946 9.39558 20.639 9.91928 20.588 10.6723C20.7477 11.4288 20.2653 12.1715 19.5724 12.4967C18.9779 12.7945 18.234 12.596 17.7381 12.2194C17.2422 11.8463 17.0316 11.1755 17.0927 10.6449C17.2184 10.0699 17.6396 9.41954 18.2103 9.19363C18.3122 8.91981 17.9147 8.71786 17.7381 8.56725C17.4664 8.49195 17.2422 8.59121 17.1165 8.86504C17.1165 9.31343 17.1165 9.68995 16.8957 10.0904C16.6239 10.4156 16.1756 10.7408 15.6559 10.6655C14.416 10.3643 14.0424 8.9643 13.8691 7.83818C13.6721 6.0138 14.5145 4.21338 16.1042 3.21391L16.4507 3.03934C16.4269 3.38847 16.2299 3.81633 16.2299 4.24076C16.0567 5.69205 17.5445 6.39032 17.5954 7.71496L17.7177 7.96483C17.8162 7.691 17.7687 7.23918 17.7415 6.98932C17.84 6.11307 18.7096 5.3395 18.2136 4.43929C17.9657 3.84029 17.5173 3.34055 17.2727 2.73813C18.1661 2.08779 19.7558 2.01249 20.5982 2.78947L20.588 2.79632Z" fill="#B5D2EE"/>
<path fill-rule="evenodd" clip-rule="evenodd" d="M19.0595 2.06434C18.2952 2.03354 17.677 2.25602 17.0452 2.68388C17.2048 3.04328 17.3475 3.33422 17.5649 3.65597C17.7483 3.9298 18.2103 4.66229 18.1831 5.09357C18.1559 5.33317 18.088 5.56935 17.9827 5.78841C17.8502 6.0417 17.6056 6.62701 17.5649 6.94191C17.4358 6.63385 17.2524 6.33607 17.0655 6.0862C16.8685 5.81922 16.6953 5.53512 16.5492 5.23391C16.342 4.78894 16.3522 4.12148 16.4983 3.63886C16.5968 3.30684 16.6172 3.07066 16.6545 2.74891L16.0125 3.07409H16.0057C14.3821 4.0941 13.4819 5.95613 13.6925 7.8695C13.7639 8.46166 13.9439 9.08462 14.1885 9.62543C14.4262 10.1697 15.0105 10.7481 15.6219 10.8508C16.111 10.933 16.77 10.6112 17.0384 10.197C17.0384 10.197 17.0384 10.1936 17.0418 10.1902C16.984 10.3305 16.9399 10.4743 16.9161 10.6249C16.8176 11.2547 17.1335 11.9804 17.626 12.3637C17.8876 12.5691 18.2272 12.7163 18.5499 12.7813C18.9168 12.8634 19.3006 12.819 19.6437 12.6581C20.0004 12.4904 20.3027 12.2268 20.5167 11.8914C20.7545 11.5285 20.8394 11.087 20.7613 10.6626C20.7647 10.5119 20.7477 10.3613 20.7035 10.2176C20.982 10.5873 21.444 10.8611 21.906 10.8508C22.3544 10.8371 22.8299 10.6215 23.105 10.2587C23.747 9.41321 24.1105 8.1228 24.0596 7.06856C23.9712 5.29552 22.9522 3.70731 21.3863 2.8961L20.9888 2.69073L21.3149 3.58751C21.4916 4.05645 21.5018 4.55276 21.3353 5.02854C21.1383 5.58988 20.8224 6.10331 20.4114 6.53117L20.391 6.55171C20.3265 6.64412 20.228 6.87688 20.1328 7.12675C20.0547 6.54828 19.8339 5.95955 19.586 5.44955C19.5146 5.02854 19.6131 4.65887 19.8339 4.29947C19.9698 4.05645 20.1193 3.82711 20.2789 3.60463C20.4929 3.31369 20.6254 3.08778 20.8054 2.76261L20.6967 2.67019C20.2382 2.28341 19.6573 2.07119 19.0561 2.07119L19.0595 2.06434ZM17.1437 9.98141C17.266 9.66308 17.2965 9.24892 17.2897 8.90321C17.3543 8.76629 17.5071 8.69099 17.6532 8.72864L17.9691 8.97509C17.9997 9.00247 18.0234 9.0367 18.0438 9.07435C18.0438 9.07435 18.0438 9.07777 18.0438 9.0812C17.6804 9.27972 17.3543 9.60147 17.1437 9.97798V9.98141ZM20.4725 9.74865C20.4555 9.72811 20.442 9.70758 20.425 9.68704C20.2178 9.44402 19.98 9.22838 19.715 9.04697L19.8985 8.88609C19.946 8.84502 19.9936 8.81421 20.0479 8.78683C20.0887 8.76629 20.1396 8.75945 20.1872 8.76629C20.2653 8.77998 20.3333 8.82106 20.3876 8.87582C20.408 8.89978 20.4216 8.92717 20.4284 8.95797L20.4488 9.14623V9.51248C20.4454 9.5912 20.4555 9.66993 20.4725 9.74523V9.74865ZM20.357 2.83791C20.1227 3.21785 19.8781 3.59436 19.6267 3.96061C19.4943 4.16255 19.372 4.43638 19.2972 4.66229C19.2225 4.88478 19.158 5.35028 19.2701 5.57277C19.7184 6.4901 19.9256 7.09594 19.7864 8.00984L20.1057 8.32132C20.2857 7.70863 20.4216 7.29789 20.6865 6.74681C21.0806 6.32922 21.3931 5.84318 21.6105 5.30921C21.8618 4.7239 21.8754 4.05645 21.6478 3.45745L21.641 3.44033C22.8639 4.24128 23.6451 5.59331 23.7165 7.07883C23.7504 8.13306 23.4413 9.17361 22.8333 10.0396C22.6023 10.3168 22.266 10.4846 21.906 10.4948C21.427 10.4709 20.8428 10.1012 20.7986 9.57751L20.7918 9.01616C20.7884 8.82448 20.6695 8.60542 20.4963 8.51985L20.2585 8.42401C20.0785 8.37951 19.8373 8.47535 19.7049 8.59515C19.4976 8.79025 19.3584 8.89636 19.1138 9.09146C19.5486 9.34818 19.7728 9.49194 20.0989 9.83765C20.3604 10.1149 20.3842 10.3168 20.4148 10.6831V10.7036C20.4827 11.0117 20.4318 11.3334 20.2789 11.6073C20.0989 11.9324 19.8339 12.1755 19.501 12.3363C18.9644 12.5896 18.3088 12.4287 17.8468 12.0796C17.429 11.7373 17.2116 11.2068 17.266 10.6694C17.395 10.0464 17.7891 9.59462 18.3495 9.3208C18.4311 9.10515 18.4107 8.90321 18.234 8.74233L17.8264 8.41374C17.8094 8.40347 17.7891 8.39662 17.7721 8.38636L17.8842 8.02011C17.9351 7.85581 17.9555 7.68809 17.9521 7.51695L17.9181 7.00352C17.9861 6.64755 18.0846 6.39083 18.2476 6.06224C18.5296 5.49062 18.6756 4.91216 18.3699 4.36108C18.2442 4.08041 18.0846 3.78604 17.9147 3.53275C17.7585 3.29999 17.6192 3.05697 17.4969 2.80368C17.9283 2.54012 18.3733 2.42717 18.8896 2.40663C19.4365 2.38609 19.9324 2.51274 20.3672 2.83106L20.357 2.83791ZM17.7143 8.37609C17.4086 8.30078 16.9976 8.53354 16.9399 8.83817L16.9161 9.46455C16.8923 9.65281 16.8346 9.83765 16.7462 10.0054C16.4949 10.3408 16.0941 10.5256 15.6796 10.5017C15.2109 10.3785 14.8135 10.0601 14.5859 9.62543C14.2971 9.06408 14.1137 8.45824 14.039 7.82843C13.8454 6.05197 14.681 4.32343 16.1858 3.3753L16.2163 3.36161C16.2061 3.39926 16.196 3.43691 16.1858 3.47456C16.111 3.71758 16.0635 3.9743 16.0533 4.23443C15.9752 4.90874 16.2877 5.59673 16.6851 6.13754C17.1063 6.71943 17.3848 7.11305 17.4188 7.77024L17.7211 8.37951L17.7143 8.37609Z" fill="#B5D2EE"/>
<path fill-rule="evenodd" clip-rule="evenodd" d="M18.4548 9.84732C17.8604 10.5216 18.6518 11.0487 18.8285 11.6957C19.0764 11.4458 19.2735 10.8947 19.4229 10.5695C19.4467 10.1691 19.1274 9.81994 19.3754 9.44343C19.7728 9.51873 20.1702 9.89182 20.2925 10.2683C20.4895 10.6688 20.442 11.2438 20.2415 11.6204C19.946 12.1133 19.6403 12.3255 19.1682 12.4282C18.4752 12.5274 18.1151 12.3768 17.5547 11.771C17.3984 11.5006 17.232 11.0522 17.3067 10.6757C17.4698 10.1896 17.6838 9.62142 18.2306 9.39551C18.5805 9.42631 18.4786 9.69672 18.4548 9.8439V9.84732Z" fill="$appcolor"/>
<path fill-rule="evenodd" clip-rule="evenodd" d="M4.68416 15.848C4.90835 16.2963 4.56188 16.6215 4.33429 16.9467C4.45997 17.621 3.98782 18.2474 4.78267 18.8224C5.35333 18.7711 6.22291 19.1476 6.54561 18.4972C6.71885 18.398 6.99059 18.4219 7.16722 18.5246C7.43897 18.6239 7.48992 18.997 7.48992 19.1989C7.5137 19.4728 7.26573 19.6473 7.04154 19.75C6.67129 19.8493 6.32142 19.6268 6.09723 19.3735C5.47562 19.5001 4.60943 19.0757 4.31051 19.75L4.21201 20.1505L4.23918 26.1234C4.8574 26.4006 5.55374 26.4246 6.22291 26.5752C6.22291 26.8011 6.14818 26.9003 6.07345 27.0989C5.80171 27.1742 5.67603 27.4001 5.47901 27.5233C5.08159 27.3727 4.73511 27.0989 4.31391 27.0749C4.14067 27.3248 4.26296 27.6739 4.16445 27.8998L3.86553 27.5507L3.84176 19.8253C3.49528 19.2024 2.77516 19.3016 2.2045 19.3495C1.95653 19.5515 1.61006 19.8493 1.21263 19.726C0.94089 19.5754 0.791431 19.3735 0.740479 19.0757C0.764256 18.7505 0.988445 18.4767 1.31114 18.4014C1.68479 18.3261 1.92936 18.6513 2.15355 18.8258C2.79894 18.8498 3.54284 19.0244 3.86553 18.3261C3.7908 17.6518 4.23918 16.9501 3.46811 16.4504C3.39338 16.2758 3.3696 15.9746 3.49189 15.8C3.61757 15.6734 3.76363 15.5502 3.91309 15.4988C4.25956 15.4235 4.58226 15.5741 4.68077 15.848H4.68416Z" fill="#B5D2EE"/>
<path fill-rule="evenodd" clip-rule="evenodd" d="M36.7636 16.6964C37.161 17.4974 36.7398 18.3702 36.1929 18.9452C35.9449 19.1198 35.7717 19.3457 35.5985 19.5956C35.8227 19.818 36.2201 20.02 36.2201 20.3452C36.1725 20.619 36.2201 20.8209 35.9483 20.9955C35.7479 21.1187 35.4796 21.2214 35.2044 21.0948C34.9565 20.9442 34.807 20.6464 34.8342 20.4205C34.9803 19.5442 35.8498 18.9213 36.3695 18.1717C36.4443 17.8704 36.5937 17.5727 36.4918 17.2714C36.4171 16.9702 36.2201 16.5458 35.8736 16.3712C35.5509 16.1453 35.055 16.1214 34.7051 16.272C34.3349 16.3952 34.0597 16.7443 33.9374 17.0969C33.737 18.6474 33.8151 19.9242 33.7642 21.2967C33.6895 24.6237 33.788 26.5713 33.6895 30.0969C33.5672 30.1722 33.4177 30.1208 33.3158 30.0455C33.1188 26.9958 33.3905 24.3704 33.3158 20.5711L33.3396 16.9976C33.4891 16.4226 33.985 15.7962 34.6542 15.673C35.4966 15.4984 36.4137 15.8715 36.7602 16.6998L36.7636 16.6964Z" fill="#B5D2EE"/>
<path fill-rule="evenodd" clip-rule="evenodd" d="M35.8736 17.1967C35.9959 17.4979 35.8498 17.6964 35.7717 17.9463C35.7241 17.9702 35.697 17.9976 35.6256 17.9976C35.6256 18.2475 35.3029 18.2475 35.1025 18.2201C34.9531 18.1722 34.6576 18.2441 34.7051 17.9976C34.4571 17.9976 34.4809 17.6964 34.4062 17.5458C34.4062 17.2446 34.6066 16.8715 34.9531 16.7962C35.3505 16.6216 35.6732 16.9194 35.8736 17.1967Z" fill="#B5D2EE"/>
<path fill-rule="evenodd" clip-rule="evenodd" d="M26.5698 21.7965C26.4203 21.9471 26.3218 22.1969 26.3965 22.3955C27.0657 22.9192 27.3884 21.7691 28.1323 22.1182C28.8048 22.1696 28.9034 22.9431 29.5216 23.0458C29.671 23.1451 29.97 23.1964 29.9428 23.4463L28.9271 23.3949L28.8524 23.4702C29.4231 24.0213 30.2926 23.9939 30.9346 24.4971C31.0094 24.6956 31.2302 24.7196 31.2845 24.9695C31.2098 25.298 30.7376 25.298 30.7376 25.6711C30.2655 25.9963 29.671 25.2227 29.1989 25.7978C29.0732 26.0716 28.6758 26.1983 28.8015 26.5474C29.3212 26.5714 29.5691 25.9963 30.116 26.1948C30.2145 26.5474 30.0922 26.8931 29.8918 27.095C29.7933 26.8452 29.3959 26.722 29.1479 26.8726C28.9747 26.9958 28.8252 27.2217 28.9271 27.4476C29.6948 28.2212 30.8361 27.5229 31.631 27.2217L32.5243 26.698C32.6976 26.8726 32.2016 27.3723 32.7248 27.2217L32.9727 27.0232L33.0237 28.8475C32.8233 29.2206 31.6582 29.0461 32.1303 29.7478C32.7281 30.3228 33.6453 30.3741 34.3892 30.6993C34.5862 30.8499 34.5115 31.0484 34.5386 31.1991C34.5149 31.401 34.1888 31.3497 34.2669 31.5995C34.4877 31.7501 34.6134 31.9521 34.6134 32.1506C34.5896 32.3252 34.5896 32.4244 34.4401 32.575C34.2431 32.753 33.8933 32.8523 33.6215 32.8009C33.4992 33.0234 33.3735 33.3281 33.0508 33.3007C32.8267 33.2767 32.6059 33.1022 32.5074 32.9276C32.4836 32.8797 32.5074 32.7291 32.3817 32.7291C32.1337 32.6811 32.1337 33.0063 31.9333 33.1569C31.6853 33.1056 31.9333 32.8044 31.7363 32.7051C31.2404 33.2562 30.7954 33.6806 30.1466 34.2043C29.9971 34.3549 29.9971 34.5295 30.0719 34.7041C30.5678 35.1285 31.3864 34.752 31.9333 35.0292C32.1337 35.4297 31.9333 35.7309 31.8586 36.2033C31.7091 36.679 31.1894 37.0042 31.1384 37.5313C31.3117 37.7299 31.5359 37.5827 31.7567 37.5074C32.4021 37.1069 32.4258 36.0082 33.3192 36.1553C33.5434 36.6825 34.4333 35.9294 34.4605 36.6551C34.3348 36.9049 34.2126 37.1309 34.2363 37.4047C33.7642 37.9558 32.9727 37.9797 32.4258 38.4042C32.1031 38.6027 31.8042 38.8526 31.4577 38.9552C31.186 39.3044 30.7648 39.6022 30.2926 39.6775C30.0685 39.6775 29.9224 39.5269 29.8443 39.3283C29.8205 39.1777 29.919 38.9792 29.7695 38.9039C29.5963 38.9279 29.4231 38.9792 29.2227 38.9552C29.1479 38.6027 29.2974 38.4042 29.4706 38.055C29.1751 37.9318 29.0732 38.4042 28.8762 38.4555C28.6792 38.5548 28.455 38.6061 28.2546 38.6575C27.959 38.4315 28.5535 38.2056 28.2546 37.9831C27.5107 38.8594 25.6017 38.0071 25.5269 39.5097C25.5779 39.6843 25.7987 39.7836 25.9244 39.7836C26.4712 39.633 27.1914 38.9347 27.6126 39.5337C27.4393 40.0334 28.455 40.1361 28.01 40.6119C27.8605 40.8857 27.3137 40.8104 27.4393 41.2588C26.6954 41.8852 26.1519 40.6838 25.3333 41.1356C24.9834 41.2828 24.5385 41.4334 24.141 41.2828C24.0663 41.1835 23.944 41.0603 23.9678 40.8823C24.3143 40.0574 24.4875 39.1846 24.0188 38.3083C23.995 38.0345 23.995 37.7333 24.0425 37.4321C24.192 37.456 24.2395 37.8325 24.4875 37.7572C24.637 37.3328 24.4637 36.7578 24.7593 36.3813L24.8578 36.3059C25.3537 36.5079 25.8768 37.1069 26.3965 36.7578C26.9434 36.2546 26.3965 35.6556 26.3727 35.0566C26.3965 34.7314 26.3727 34.4302 26.1757 34.1324C25.4318 33.6567 24.3381 33.6087 23.9916 32.6572C23.2477 31.6064 24.834 30.6343 23.7946 29.5082C24.2395 29.5321 24.5622 29.9086 24.7627 30.2578C25.1125 31.0313 24.7627 31.733 24.2429 32.2807C24.1444 32.5032 24.2429 32.7051 24.2939 32.955C24.8646 33.7559 25.9787 33.4308 26.7736 33.8073C27.317 33.5814 27.7416 33.0303 28.0134 32.5545C27.7892 32.356 27.565 32.8283 27.2457 32.7564H27.171C27.2695 32.4313 27.368 31.9076 27.0215 31.6577C26.7736 31.7056 26.7973 32.1061 26.5494 32.1574C25.9549 31.5311 26.2505 30.4803 25.8293 29.806C25.5575 29.8813 25.8021 30.5042 25.4318 30.2304C24.7117 29.5082 25.0616 28.6319 24.8849 27.7796C24.637 27.831 24.6641 28.1048 24.5385 28.2314C24.0901 28.0808 23.7708 27.6838 23.6451 27.2559C23.5704 26.8554 23.6689 26.5063 24.0188 26.1298C23.9678 25.856 23.6451 25.9313 23.5704 25.6814C23.4209 25.3836 23.6927 25.079 23.9678 24.9078C23.8455 24.5827 23.9916 24.2815 24.3143 24.2335C24.3143 23.9323 24.0425 23.6619 24.2395 23.3094C24.4875 22.9842 24.9087 22.7857 25.3571 22.7583C25.4794 22.3578 25.5066 21.906 26.0263 21.7828C26.2233 21.7314 26.3965 21.7075 26.5732 21.8067L26.5698 21.7965Z" fill="#B5D2EE"/>
<path fill-rule="evenodd" clip-rule="evenodd" d="M9.74545 22.0704C10.3433 22.0943 10.1429 22.8953 10.7645 22.8713C11.111 23.0972 10.7883 23.4224 10.9853 23.6962C11.2095 23.9221 11.4574 24.172 11.5831 24.4972C11.6069 24.6957 11.5322 24.9216 11.4574 25.0962C11.1347 25.0688 10.7135 24.9216 10.3908 24.8942C10.3908 25.2194 10.615 25.6952 10.4146 25.969C10.5131 26.2702 10.666 26.6433 10.5641 26.9445C10.5131 27.0951 10.4146 27.2183 10.3161 27.345C10.7645 27.4716 10.863 27.92 10.9853 28.3445L11.6307 28.519C11.7564 28.7175 11.8549 29.0701 11.9024 29.3953C12.1776 29.4945 12.5478 29.5938 12.6225 29.9224C12.4969 30.4221 13.0947 30.3947 13.166 30.7952C13.5634 31.2231 12.7686 31.7707 13.5125 31.9966C13.9847 32.4964 13.859 33.0714 13.611 33.6225C13.808 33.821 13.808 34.2215 13.7605 34.5227C13.2408 34.8718 13.859 35.796 13.166 36.2239C12.8433 36.3197 12.7686 35.9466 12.6463 35.772C12.2761 36.4463 12.147 37.4732 12.4731 38.2707C12.3236 38.8732 11.7767 39.4722 11.6782 40.1465C11.1313 40.5469 10.2618 40.4203 9.81678 41.0946C9.78961 41.6457 9.09666 41.3958 8.75018 41.4198C9.19856 40.0438 11.1313 40.4956 11.5288 39.0683C11.702 38.2947 10.9819 37.7676 10.6864 37.1207L10.4893 36.994C9.64694 37.4424 9.00155 38.192 8.00629 38.394C7.48657 38.37 6.91591 38.7431 6.74268 39.1436C6.56944 39.6946 5.94782 39.568 5.47567 39.592L5.37716 39.5166C5.47567 39.2668 5.82214 39.2428 5.84932 39.0169C6.7189 38.6917 7.60886 38.192 8.2067 37.4903C8.43089 36.6654 8.55317 36.1143 9.0491 35.3887C8.89964 35.0635 8.82831 34.7383 8.92342 34.4132C8.55317 34.2146 8.08101 33.9134 8.03006 33.465C7.75832 33.2152 7.23521 32.914 7.30994 32.4416C6.96347 32.267 6.59322 32.1917 6.36903 31.8426C6.56604 31.2197 5.69986 31.3189 5.67268 30.7678C5.67268 30.518 5.79497 30.4187 5.77119 30.1688C5.42472 29.9429 5.25148 29.5185 5.37377 29.142C5.9716 28.7689 5.34999 28.0672 5.84592 27.6154C6.04293 27.2902 6.78683 27.3416 6.51509 26.8658C6.58982 26.2668 7.40845 26.414 7.40845 25.8389C7.30994 25.6644 7.68019 25.2639 7.33372 25.1886C6.83779 24.9387 6.09389 25.5891 5.94443 24.7368C6.24335 24.0864 6.78683 23.3368 7.55791 23.1623C7.75832 22.8097 7.18426 22.8884 7.06198 22.6625C6.98725 22.5633 6.81401 22.4366 6.86496 22.286C7.38467 21.9369 8.15574 22.31 8.6245 22.0361C8.99815 22.1354 9.41935 22.2347 9.74205 22.0601L9.74545 22.0704Z" fill="#B5D2EE"/>
<path fill-rule="evenodd" clip-rule="evenodd" d="M8.97776 23.8468C8.95398 24.0967 8.58033 24.0693 8.35614 24.0967C8.20668 23.9974 8.03345 23.8468 8.03345 23.6483C8.25764 23.347 8.85208 23.4463 8.97776 23.8468Z" fill="$appcolor"/>
<path fill-rule="evenodd" clip-rule="evenodd" d="M35.3267 24.3229C35.1772 24.874 35.9721 24.7747 35.7479 25.2745C35.5747 25.9008 34.9327 26.3253 34.7051 26.9996C34.6813 27.1502 34.9055 27.1502 34.9768 27.0509C35.0753 26.9277 35.201 26.7257 35.398 26.7257C35.3505 27.5267 34.6813 27.9751 34.2092 28.4509H34.0087C33.9612 27.0988 34.0325 26.0994 34.0597 24.4016C34.2601 24.1757 34.43 23.9258 34.756 23.8779C35.0278 23.8779 35.252 24.0765 35.3267 24.3263V24.3229Z" fill="#B5D2EE"/>
<path fill-rule="evenodd" clip-rule="evenodd" d="M29.2465 24.2471C29.2465 24.473 29.2702 24.6202 29.0494 24.6715C28.8253 24.6715 28.6011 24.8221 28.4041 24.6715C28.4788 24.5209 28.5026 24.3224 28.7539 24.2197C28.9272 24.1444 29.2023 23.9938 29.2499 24.2436L29.2465 24.2471Z" fill="$appcolor"/>
<path fill-rule="evenodd" clip-rule="evenodd" d="M3.49529 26.2974C3.62097 26.6978 3.22354 26.9717 3.42056 27.4475C3.59379 27.7726 3.96744 28.1218 3.94027 28.4983C3.94027 28.5496 3.86554 28.7242 3.76703 28.8234L3.54284 29.022C3.34583 28.998 3.44434 28.7721 3.2711 28.6968L3.09786 28.8714L3.12164 28.8953L3.04691 28.9706C2.87367 27.9438 2.40152 27.047 2.89745 26.1707C3.07069 25.9448 3.54284 26.0715 3.49189 26.2939L3.49529 26.2974Z" fill="#B5D2EE"/>
<path fill-rule="evenodd" clip-rule="evenodd" d="M4.16449 35.9979C4.28678 36.1724 4.51097 36.0492 4.63665 35.9465C6.02594 35.3235 6.22296 33.6464 6.29768 32.4723C6.52187 32.4484 6.74606 32.6263 6.9193 32.7222C7.61225 33.3246 6.54565 33.6977 6.5966 34.2248C6.86835 35.5495 4.95935 35.3989 4.93217 36.6242C4.65703 36.8467 4.16449 36.6756 3.79085 36.6756L3.76367 32.2019C3.88935 31.2264 3.79085 30.3501 3.86218 29.2514L4.13392 28.9502C4.23243 30.8773 4.11015 33.4273 4.1577 36.0013L4.16449 35.9979Z" fill="#B5D2EE"/>
<path fill-rule="evenodd" clip-rule="evenodd" d="M33.6385 35.8716L33.2411 35.7483C33.2411 35.074 33.1663 34.297 33.2649 33.6227L33.6113 33.4961C33.7336 34.345 33.5875 34.7968 33.6351 35.8716H33.6385Z" fill="#B5D2EE"/>
<path fill-rule="evenodd" clip-rule="evenodd" d="M18.8862 16.2895L36.7228 1.43769V9.46428L22.0113 21.9132L21.9909 47.9611L18.662 50.0662L15.6015 48.0843L15.6083 21.8139L1.33496 9.14596L1.34515 0.961914L18.8862 16.2895Z" fill="white"/>
<path fill-rule="evenodd" clip-rule="evenodd" d="M11.2434 10.8637C10.8731 11.2402 10.3263 11.4148 9.90506 11.7639V11.9145C10.401 12.4896 10.8494 13.0646 11.42 13.5644C11.5933 14.0128 12.0179 14.2147 12.1911 14.6391L11.9941 14.5638L9.23929 12.7395H9.06605C8.76713 13.1878 8.71958 13.7389 8.42066 14.1873C7.99945 13.9614 7.45257 13.537 7.25555 13.1365L8.49539 12.3116C8.17269 11.9351 7.70393 11.7126 7.30651 11.3874C7.30651 10.9117 7.87717 10.6139 8.14891 10.2134C8.19986 10.162 8.29837 10.2134 8.34932 10.1894C8.64485 10.5146 9.06605 11.0143 9.39214 11.2642C9.66388 10.8158 9.81334 10.2887 10.0885 9.86426C10.5335 10.1141 10.9309 10.4393 11.2536 10.8637H11.2434Z" fill="$appcolor"/>
<path fill-rule="evenodd" clip-rule="evenodd" d="M28.5365 11.3877C28.9339 11.1618 29.2804 10.7373 29.5793 10.4122H29.7525C30.0243 10.7887 30.4489 11.1378 30.6221 11.5622C30.2009 11.8874 29.7525 12.1612 29.3823 12.4624C29.7797 12.8869 30.3266 13.1128 30.7988 13.438V13.5886C30.3776 13.8864 30.1024 14.3142 29.6065 14.4614C29.3585 13.9103 29.1615 13.3353 28.8626 12.8116C27.796 13.4106 26.7803 14.1362 25.7137 14.7626V14.6394L28.0711 11.9901C27.7009 11.6136 27.2015 11.3637 26.7566 11.0385V10.8879C27.103 10.6381 27.4495 10.1623 27.9217 10.0391L28.5399 11.3911L28.5365 11.3877Z" fill="$appcolor"/>
<path fill-rule="evenodd" clip-rule="evenodd" d="M19.6267 21.7148C19.603 22.2659 19.4773 22.6903 19.552 23.2174C20.0479 23.1147 20.4963 22.8649 20.9922 22.793C21.213 23.2174 21.0398 23.7651 21.067 24.2408L20.9685 24.2888L19.4807 23.8404C19.1818 23.9636 19.4297 24.3161 19.2837 24.4394C19.2089 25.3635 19.0595 26.4144 18.8862 27.3146H18.8353C18.4888 26.1884 18.5635 25.0384 18.2646 23.9123C17.694 23.8883 17.1471 24.3127 16.6036 24.2374C16.5526 23.8369 16.5526 23.2619 16.6036 22.8614L16.6783 22.7861C17.2014 22.8341 17.6464 23.1592 18.1423 23.1832C18.1661 22.7348 18.0404 22.2077 18.0167 21.684C18.4888 21.5334 19.0832 21.6087 19.5792 21.6087L19.6267 21.7079V21.7148Z" fill="$appcolor"/>
<path fill-rule="evenodd" clip-rule="evenodd" d="M19.5792 36.5899C19.5792 37.0622 19.5044 37.6133 19.4569 38.0891L19.5554 38.1644L20.9209 37.7399L21.0432 37.7913C21.0941 38.4142 21.0432 38.7394 20.9684 39.2905C20.571 39.2665 20.126 39.1159 19.7762 38.9653L19.7999 38.9414C19.7014 38.8147 19.5044 38.89 19.355 38.8661C19.1817 40.088 18.9609 41.3134 18.8081 42.5148H18.7096C18.4378 41.3408 18.3869 40.1154 18.1661 38.8661C18.0676 38.89 17.7687 38.8147 17.6192 38.9414L17.643 38.9653C17.395 39.1399 16.9229 39.1912 16.5764 39.3179C16.3794 38.7668 16.5526 38.2944 16.5017 37.7913C17.0485 37.7399 17.4935 38.1164 18.0642 38.1644C18.1389 37.6407 17.9895 37.1409 17.9623 36.6138L18.0642 36.5385C18.5601 36.5659 19.1036 36.4872 19.5758 36.5899H19.5792Z" fill="$appcolor"/>
</g>
</g>
<defs>
<clipPath id="clip0_6538_9716">
<rect width="38" height="52" fill="white"/>
</clipPath>
<clipPath id="clip1_6538_9716">
<rect width="38" height="52" fill="white"/>
</clipPath>
</defs>
</svg>
