<svg width="252" height="72" viewBox="0 0 252 72" fill="none" xmlns="http://www.w3.org/2000/svg">
<g clip-path="url(#clip0_6760_1238)">
<path fill-rule="evenodd" clip-rule="evenodd" d="M52.7171 48.4718C52.366 50.3324 51.8157 52.3348 50.4636 53.9546V54.0585C47.8306 57.1613 44.2962 58.9228 41.0749 61.2699C37.7492 63.617 26.1403 71.5839 26.1403 71.5839C24.5463 70.7197 11.1345 61.2699 11.1345 61.2699C8.39717 59.2345 5.76416 57.4068 3.0932 55.4753C2.05423 54.408 1.11963 53.1329 0.597775 51.7492L0.389033 51.0597L0.355824 0.353695L52.9543 0.386753C52.9543 0.386753 52.9211 39.7775 52.7123 48.4718H52.7171Z" fill="#011E41"/>
<path fill-rule="evenodd" clip-rule="evenodd" d="M-0.394669 -0.396778L53.7049 -0.362777L53.7043 0.387384L52.9543 0.386752C53.7043 0.387384 53.7043 0.387082 53.7043 0.387384V0.38919L53.7024 2.09721C53.7011 3.19138 53.699 4.76416 53.6958 6.67866C53.6894 10.5076 53.6788 15.7036 53.6616 21.1713C53.629 31.514 53.5731 42.8422 53.4786 47.7218H53.6218L53.4541 48.6108C53.1119 50.4242 52.5655 52.4887 51.2136 54.2195V54.3339L51.0354 54.5438C49.6578 56.1672 48.0554 57.4264 46.4176 58.5636C45.7016 59.0608 45.0027 59.5197 44.3113 59.9737C43.374 60.5892 42.4504 61.1956 41.5166 61.876L41.5074 61.8827C39.8403 63.0593 36.1025 65.6405 32.7859 67.9247C31.1266 69.0675 29.5714 70.1369 28.4309 70.9205C27.8607 71.3124 27.3942 71.6328 27.0702 71.8553L26.5652 72.2019C26.5651 72.202 26.5647 72.2023 26.1403 71.5839L26.5652 72.2019L26.1863 72.462L25.7828 72.2433C25.3424 72.0045 24.1658 71.2237 22.7014 70.2279C21.2167 69.2183 19.3883 67.9543 17.6114 66.7185C15.8342 65.4825 14.1071 64.2737 12.8243 63.3739C12.1829 62.924 11.6526 62.5513 11.2825 62.2911L10.705 61.8847L10.7032 61.8834C10.7031 61.8833 10.7026 61.883 11.1345 61.2699L10.7032 61.8834L10.6947 61.8774L10.687 61.8717C8.95496 60.5838 7.2724 59.3848 5.58831 58.1847C4.61392 57.4903 3.63901 56.7956 2.65371 56.083L2.60109 56.045L2.55579 55.9985C1.47175 54.8849 0.465809 53.5247 -0.103976 52.0139L-0.112802 51.9905L-0.360895 51.171L-0.394669 -0.396778ZM26.1122 70.6935L26.2211 70.6187C26.5449 70.3963 27.0113 70.076 27.5814 69.6843C28.7216 68.9008 30.2764 67.8318 31.9351 66.6894C35.2512 64.4055 38.9769 61.8325 40.6378 60.6604C41.5738 59.9786 42.574 59.3206 43.5522 58.6771C44.2433 58.2224 44.9234 57.775 45.5621 57.3315C47.0803 56.2773 48.4971 55.1625 49.7136 53.7795V53.6828L49.8878 53.474C51.0923 52.031 51.6175 50.2237 51.9633 48.4207C52.067 44.0558 52.1273 32.0775 52.1616 21.1666C52.1788 15.6998 52.1894 10.5047 52.1958 6.67616C52.199 4.76192 52.2011 3.18938 52.2024 2.0954L52.2035 1.13628L1.10631 1.10417L1.13896 50.9484L1.30816 51.5073C1.77671 52.7367 2.61687 53.9016 3.58595 54.9061C4.53533 55.5923 5.48497 56.269 6.43872 56.9487C8.13053 58.1544 9.83526 59.3693 11.5743 60.6623L12.1454 61.0641C12.515 61.3241 13.0449 61.6964 13.6857 62.1459C14.9675 63.045 16.6929 64.2526 18.4679 65.4871C20.2432 66.7218 22.0666 67.9823 23.5449 68.9876C24.68 69.7594 25.585 70.3624 26.1122 70.6935Z" fill="white"/>
<path fill-rule="evenodd" clip-rule="evenodd" d="M34.2101 6.11521C35.7709 8.91095 35.6286 12.2545 33.8306 14.8755C32.0278 17.5296 28.9109 18.8094 25.6564 18.6016C22.3972 18.323 19.3846 16.0467 18.2413 13.0149C17.1312 9.87436 17.8618 6.56385 20.1105 4.28758C22.6391 1.66656 26.8662 0.873175 30.2298 2.42689C31.8238 3.11639 33.3514 4.59927 34.2149 6.11521H34.2101Z" fill="#B5D2EE"/>
<path fill-rule="evenodd" clip-rule="evenodd" d="M34.4189 5.99242C33.4748 4.34425 32.0468 3.02666 30.3294 2.20493C26.8662 0.608713 22.5964 1.41155 19.9349 4.11757C17.6483 6.44106 16.8038 10.0396 18.0136 13.0999C19.2518 16.2309 22.2359 18.5497 25.6327 18.8425C27.1223 18.97 28.7638 18.6914 30.1491 18.1341C31.7242 17.5013 33.0763 16.4104 34.0298 15.0125C35.8706 12.3395 36.0414 8.81651 34.4189 5.99714V5.99242ZM25.6706 18.3608C22.4351 18.0349 19.6503 15.9381 18.4595 12.9251C17.3684 9.99242 18.0752 6.69136 20.2765 4.45759C22.8573 1.87908 26.776 1.15653 30.1159 2.64413C31.7431 3.42335 33.0952 4.67483 33.9919 6.23327C35.51 8.90623 35.3677 12.2073 33.6218 14.7386C32.8011 15.9381 31.691 16.8873 30.3721 17.506C28.9014 18.1813 27.2836 18.4788 25.6706 18.3608Z" fill="#B5D2EE"/>
<path fill-rule="evenodd" clip-rule="evenodd" d="M33.5507 6.2191C35.1827 8.91096 34.8648 12.5662 32.858 15.0503C31.022 17.1565 28.1091 18.3608 25.0634 17.8082C22.2548 17.2935 19.693 15.0833 18.8248 12.3915C17.9234 9.66657 18.654 6.94165 20.4521 4.90623C22.568 2.45995 26.3443 1.56267 29.4944 2.8047C31.1596 3.46113 32.6161 4.63233 33.5507 6.2191Z" fill="#011E41"/>
<path fill-rule="evenodd" clip-rule="evenodd" d="M28.8729 3.97589C28.3179 5.04319 26.8994 6.35606 27.2457 7.70198C27.7343 8.73622 28.2182 9.87436 28.0095 11.0833L28.0807 11.1494C28.3226 10.493 28.4602 9.91214 28.8065 9.28876C29.8834 8.15062 30.7469 6.49301 30.1254 4.97707L29.8834 4.32064C31.8902 5.28876 33.3799 7.49419 33.4843 9.87436C33.5554 11.1825 33.1047 12.944 32.2033 14.1152C31.857 14.5308 31.3019 14.8378 30.7137 14.8378C29.9499 14.8047 29.3948 14.3891 29.0485 13.7705C28.6689 13.081 29.3236 12.2167 28.3558 11.9759C27.8719 11.9051 27.5968 12.4245 27.2457 12.6323C27.9763 13.081 28.9441 13.8035 28.8729 14.8425C29.0959 15.8862 28.4222 16.911 27.4544 17.3596C26.6242 17.7705 25.5852 17.4966 24.8878 16.9771C24.1952 16.4623 23.9011 15.5367 23.9865 14.8047C24.162 14.0113 24.7503 13.114 25.5473 12.8023C25.6896 12.4245 25.1345 12.1459 24.8878 11.9381C24.5083 11.8342 24.1952 11.9712 24.0197 12.349C24.0197 12.9676 24.0197 13.4871 23.7113 14.0396C23.3318 14.4883 22.7055 14.9369 21.9797 14.833C20.2481 14.4174 19.7262 12.4859 19.4843 10.9322C19.2091 8.41509 20.3856 5.93103 22.6059 4.55204L23.0898 4.31119C23.0566 4.79289 22.7814 5.38321 22.7814 5.96881C22.5395 7.97117 24.6174 8.93457 24.6886 10.7622L24.8594 11.1069C24.997 10.7291 24.9305 10.1058 24.8926 9.76101C25.0302 8.55204 26.2447 7.48475 25.552 6.24271C25.2057 5.41627 24.5795 4.72678 24.2379 3.89561C25.4856 2.99832 27.7059 2.89443 28.8824 3.96645L28.8729 3.97589Z" fill="#B5D2EE"/>
<path fill-rule="evenodd" clip-rule="evenodd" d="M26.7381 2.96526C25.6706 2.92276 24.8072 3.22973 23.9248 3.82005C24.1478 4.31591 24.347 4.71733 24.6506 5.16125C24.9068 5.53905 25.552 6.54968 25.5141 7.14472C25.4761 7.4753 25.3812 7.80116 25.2342 8.1034C25.0491 8.45287 24.7076 9.26042 24.6506 9.6949C24.4704 9.26987 24.2142 8.85901 23.9533 8.51426C23.6781 8.1459 23.4361 7.75393 23.2321 7.33835C22.9427 6.72441 22.957 5.80352 23.161 5.13764C23.2986 4.67955 23.327 4.35369 23.3792 3.90977L22.4826 4.35842H22.4731C20.2054 5.76574 18.9482 8.3348 19.2423 10.9747C19.3419 11.7917 19.5934 12.6512 19.935 13.3974C20.267 14.1483 21.083 14.9464 21.937 15.0881C22.6201 15.2014 23.5405 14.7575 23.9153 14.186V14.1766C23.8394 14.3702 23.7777 14.5686 23.7445 14.7764C23.6069 15.6453 24.0481 16.6465 24.736 17.1754C25.1013 17.4588 25.5758 17.6618 26.0264 17.7516C26.5388 17.8649 27.0749 17.8035 27.5541 17.5816C28.0522 17.3502 28.4744 16.9865 28.7733 16.5237C29.1054 16.0231 29.224 15.4139 29.1149 14.8283C29.1196 14.6205 29.0959 14.4127 29.0342 14.2144C29.4233 14.7244 30.0685 15.1022 30.7137 15.0881C31.3399 15.0692 32.0041 14.7716 32.3884 14.271C33.285 13.1046 33.7926 11.3242 33.7215 9.86963C33.5981 7.42335 32.1749 5.23209 29.9878 4.11284L29.4327 3.82949L29.8882 5.0668C30.1349 5.71379 30.1491 6.39856 29.9167 7.05499C29.6415 7.82949 29.2003 8.53787 28.6262 9.12819L28.5978 9.15653C28.5076 9.28404 28.3701 9.60517 28.2372 9.94992C28.1234 9.1518 27.8197 8.33953 27.4734 7.63587C27.3738 7.05499 27.5114 6.54496 27.8197 6.04909C28.0095 5.71379 28.2182 5.39738 28.4412 5.09041C28.7401 4.68899 28.9251 4.37731 29.1766 3.92866L29.0248 3.80116C28.3843 3.26751 27.573 2.97471 26.7333 2.97471L26.7381 2.96526ZM24.0624 13.8885C24.2332 13.4493 24.2759 12.8779 24.2664 12.4009C24.3565 12.212 24.57 12.1081 24.774 12.1601L25.2152 12.5001C25.2579 12.5379 25.2911 12.5851 25.3196 12.637V12.6465C24.8167 12.9204 24.3612 13.3643 24.0671 13.8838L24.0624 13.8885ZM28.7116 13.5674C28.6879 13.5391 28.6689 13.5107 28.6452 13.4824C28.3558 13.1471 28.0237 12.8496 27.6537 12.5993L27.9099 12.3773C27.9763 12.3206 28.0427 12.2781 28.1186 12.2404C28.1755 12.212 28.2467 12.2026 28.3131 12.212C28.4222 12.2309 28.5171 12.2876 28.593 12.3631C28.6215 12.3962 28.6405 12.434 28.65 12.4765L28.6784 12.7362V13.2415C28.6737 13.3502 28.6879 13.4588 28.7116 13.5627V13.5674ZM28.5503 4.03256C28.223 4.55676 27.8814 5.07624 27.5303 5.58156C27.3453 5.86019 27.1745 6.23799 27.0702 6.54968C26.9658 6.85665 26.8756 7.49891 27.0322 7.80588C27.6584 9.07152 27.9478 9.90741 27.7533 11.1683L28.1993 11.5981C28.4507 10.7527 28.6405 10.186 29.0105 9.42571C29.5608 8.84956 29.9973 8.17896 30.3009 7.44224C30.652 6.63469 30.671 5.71379 30.3531 4.88734L30.3436 4.86373C32.0515 5.96881 33.1427 7.83421 33.2423 9.8838C33.2897 11.3383 32.858 12.774 32.0088 13.9688C31.6862 14.3513 31.2165 14.5827 30.7137 14.5969C30.0447 14.5638 29.2287 14.0538 29.1671 13.3313L29.1576 12.5568C29.1528 12.2923 28.9868 11.9901 28.7448 11.872L28.4128 11.7398C28.1613 11.6784 27.8245 11.8106 27.6395 11.9759C27.3501 12.2451 27.1556 12.3915 26.814 12.6607C27.4212 13.0149 27.7343 13.2132 28.1898 13.6902C28.5551 14.0727 28.5883 14.3513 28.631 14.8566V14.885C28.7259 15.31 28.6547 15.7539 28.4412 16.1317C28.1898 16.5804 27.8197 16.9157 27.3548 17.1376C26.6052 17.4871 25.6896 17.2651 25.0444 16.7834C24.4609 16.3112 24.1572 15.5792 24.2332 14.8378C24.4134 13.9783 24.9638 13.3549 25.7465 12.9771C25.8604 12.6796 25.8319 12.4009 25.5852 12.179L25.0159 11.7256C24.9922 11.7114 24.9638 11.702 24.94 11.6878L25.0966 11.1825C25.1678 10.9558 25.1962 10.7244 25.1915 10.4883L25.144 9.7799C25.2389 9.28876 25.3765 8.93457 25.6042 8.4812C25.998 7.69254 26.202 6.89443 25.775 6.1341C25.5995 5.74685 25.3765 5.34071 25.1393 4.99124C24.9211 4.6701 24.7265 4.3348 24.5558 3.98533C25.1583 3.6217 25.7797 3.46585 26.5009 3.43752C27.2647 3.40918 27.9573 3.58392 28.5646 4.02312L28.5503 4.03256ZM24.8594 11.6736C24.4324 11.5698 23.8584 11.8909 23.7777 12.3112L23.7445 13.1754C23.7113 13.4352 23.6306 13.6902 23.5073 13.9216C23.1562 14.3844 22.5964 14.6394 22.0176 14.6064C21.3629 14.4363 20.8079 13.9971 20.49 13.3974C20.0868 12.6229 19.8306 11.787 19.7262 10.918C19.4558 8.46704 20.6229 6.08215 22.7245 4.774L22.7672 4.75511C22.753 4.80706 22.7387 4.85901 22.7245 4.91095C22.6201 5.24626 22.5537 5.60045 22.5395 5.95936C22.4304 6.8897 22.8668 7.83894 23.4219 8.5851C24.0102 9.38793 24.3992 9.93103 24.4466 10.8378L24.8689 11.6784L24.8594 11.6736Z" fill="#B5D2EE"/>
<path fill-rule="evenodd" clip-rule="evenodd" d="M25.8936 13.7043C25.0634 14.6347 26.1688 15.362 26.4155 16.2545C26.7618 15.9098 27.037 15.1494 27.2457 14.7008C27.2789 14.1483 26.833 13.6666 27.1793 13.1471C27.7343 13.251 28.2894 13.7657 28.4602 14.2852C28.7354 14.8378 28.6689 15.6311 28.389 16.1506C27.9763 16.8307 27.5493 17.1235 26.8899 17.2651C25.9221 17.4021 25.4192 17.1943 24.6364 16.3584C24.4182 15.9853 24.1857 15.3667 24.2901 14.8472C24.5178 14.1766 24.8167 13.3927 25.5805 13.081C26.0691 13.1235 25.9268 13.4965 25.8936 13.7043Z" fill="#011E41"/>
<path fill-rule="evenodd" clip-rule="evenodd" d="M6.6608 21.983C6.97392 22.6016 6.49001 23.0503 6.17216 23.4989C6.34769 24.4293 5.68825 25.2935 6.79838 26.0869C7.5954 26.016 8.80991 26.5355 9.2606 25.6382C9.50255 25.5013 9.88208 25.5343 10.1288 25.676C10.5083 25.813 10.5795 26.3277 10.5795 26.6063C10.6127 26.9842 10.2664 27.225 9.95799 27.3667C9.44088 27.5036 8.95223 27.1967 8.63912 26.8472C7.77094 27.0219 6.56118 26.4363 6.14369 27.3667L6.00611 27.9192L6.04406 36.1601C6.9075 36.5426 7.88005 36.5757 8.81465 36.7834C8.81465 37.0951 8.71028 37.2321 8.60591 37.506C8.22637 37.6099 8.05084 37.9216 7.77568 38.0916C7.22061 37.8838 6.73671 37.506 6.14844 37.4729C5.90648 37.8177 6.07727 38.2994 5.93969 38.6111L5.52221 38.1294L5.489 27.4706C5.00509 26.6111 3.99933 26.748 3.20232 26.8141C2.85599 27.0928 2.37209 27.5036 1.81702 27.3336C1.43749 27.1258 1.22875 26.8472 1.15759 26.4363C1.19079 25.9877 1.50391 25.6099 1.9546 25.506C2.47646 25.4021 2.81804 25.8507 3.13115 26.0916C4.03254 26.1246 5.07151 26.3655 5.52221 25.4021C5.41784 24.4718 6.04406 23.5036 4.96714 22.8141C4.86277 22.5733 4.82956 22.1577 5.00035 21.9169C5.17588 21.7421 5.37988 21.5721 5.58863 21.5013C6.07253 21.3974 6.52322 21.6052 6.6608 21.983Z" fill="#B5D2EE"/>
<path fill-rule="evenodd" clip-rule="evenodd" d="M51.4646 23.1542C52.0197 24.2592 51.4314 25.4635 50.6676 26.2569C50.3213 26.4977 50.0793 26.8094 49.8374 27.1542C50.1505 27.4611 50.7055 27.7398 50.7055 28.1884C50.6391 28.5662 50.7055 28.8448 50.326 29.0857C50.0461 29.2557 49.6713 29.3974 49.287 29.2226C48.9407 29.0149 48.732 28.604 48.7699 28.2923C48.9739 27.0833 50.1884 26.2238 50.9143 25.1896C51.0187 24.774 51.2274 24.3631 51.0851 23.9476C50.9807 23.532 50.7055 22.9464 50.2216 22.7055C49.7709 22.3938 49.0783 22.3608 48.5896 22.5686C48.0725 22.7386 47.6883 23.2203 47.5175 23.7067C47.2376 25.846 47.3467 27.6075 47.2755 29.5013C47.1711 34.0916 47.3087 36.7787 47.1711 41.643C47.0004 41.7468 46.7869 41.676 46.6493 41.5721C46.3741 37.3643 46.7537 33.7421 46.6493 28.5001L46.6825 23.5698C46.8912 22.7764 47.5839 21.9121 48.5185 21.7421C49.695 21.5013 50.9807 22.016 51.4646 23.1589V23.1542Z" fill="#B5D2EE"/>
<path fill-rule="evenodd" clip-rule="evenodd" d="M50.2216 23.8437C50.3924 24.2592 50.1884 24.5331 50.0793 24.8779C50.0129 24.911 49.9749 24.9487 49.8753 24.9487C49.8753 25.2935 49.4246 25.2935 49.1447 25.2557C48.936 25.1896 48.5232 25.2888 48.5896 24.9487C48.2433 24.9487 48.2765 24.5331 48.1722 24.3254C48.1722 23.9098 48.4521 23.395 48.936 23.2911C49.491 23.0503 49.9417 23.4611 50.2216 23.8437Z" fill="#B5D2EE"/>
<path fill-rule="evenodd" clip-rule="evenodd" d="M37.2274 30.1908C37.0187 30.3986 36.8811 30.7433 36.9854 31.0172C37.92 31.7398 38.3707 30.153 39.4097 30.6347C40.349 30.7055 40.4866 31.7728 41.3501 31.9145C41.5588 32.0515 41.9763 32.1223 41.9383 32.467L40.5198 32.3962L40.4155 32.5001C41.2125 33.2604 42.427 33.2226 43.3236 33.9169C43.428 34.1908 43.7364 34.2238 43.8123 34.5686C43.7079 35.0172 43.0485 35.0172 43.0485 35.5367C42.389 35.9853 41.5588 34.918 40.8994 35.7114C40.7238 36.0892 40.1688 36.264 40.3443 36.7457C41.0702 36.7787 41.4165 35.9853 42.1803 36.2592C42.3179 36.7457 42.1471 37.2226 41.8672 37.5013C41.7296 37.1565 41.1745 36.9865 40.8282 37.1943C40.5863 37.3643 40.3775 37.676 40.5198 37.9877C41.592 39.055 43.1861 38.0916 44.2962 37.676L45.5439 36.9535C45.7858 37.1943 45.0932 37.8838 45.8238 37.676L46.1701 37.4021L46.2413 39.9192C45.9614 40.434 44.3341 40.1931 44.9936 41.1613C45.8285 41.9546 47.1095 42.0255 48.1484 42.4741C48.4236 42.6819 48.3192 42.9558 48.3572 43.1636C48.324 43.4422 47.8685 43.3714 47.9776 43.7161C48.286 43.9239 48.4616 44.2026 48.4616 44.4765C48.4283 44.7173 48.4283 44.8543 48.2196 45.0621C47.9444 45.3076 47.4558 45.4446 47.0763 45.3738C46.9055 45.6807 46.7299 46.101 46.2792 46.0633C45.9661 46.0302 45.6578 45.7893 45.5202 45.5485C45.487 45.4824 45.5202 45.2746 45.3446 45.2746C44.9983 45.2085 44.9983 45.6571 44.7184 45.8649C44.3721 45.7941 44.7184 45.3785 44.4433 45.2415C43.7506 46.0019 43.1291 46.5875 42.223 47.31C42.0142 47.5178 42.0142 47.7586 42.1186 47.9995C42.8113 48.5851 43.9546 48.0656 44.7184 48.4481C44.9983 49.0007 44.7184 49.4163 44.614 50.068C44.4053 50.7244 43.6794 51.1731 43.6083 51.9003C43.8502 52.1742 44.1633 51.9712 44.4717 51.8673C45.3731 51.3147 45.4063 49.7988 46.654 50.0019C46.9671 50.7291 48.2101 49.6902 48.2481 50.6914C48.0725 51.0361 47.9017 51.3478 47.9349 51.7256C47.2755 52.4859 46.1701 52.519 45.4063 53.1046C44.9556 53.3785 44.5381 53.7232 44.0542 53.8649C43.6747 54.3466 43.0864 54.7575 42.427 54.8614C42.1139 54.8614 41.9099 54.6536 41.8008 54.3797C41.7675 54.1719 41.9051 53.898 41.6964 53.7941C41.4544 53.8271 41.2125 53.898 40.9326 53.8649C40.8282 53.3785 41.0369 53.1046 41.2789 52.6229C40.8662 52.4529 40.7238 53.1046 40.4487 53.1754C40.1735 53.3124 39.8604 53.3832 39.5805 53.454C39.1678 53.1424 39.998 52.8307 39.5805 52.5237C38.5415 53.7327 35.8753 52.5568 35.7709 54.63C35.8421 54.8708 36.1505 55.0078 36.326 55.0078C37.0898 54.8 38.0956 53.8366 38.6838 54.663C38.4419 55.3525 39.8604 55.4942 39.2389 56.1506C39.0302 56.5284 38.2664 56.4245 38.4419 57.0432C37.4029 57.9074 36.6439 56.2498 35.5005 56.8732C35.0119 57.0762 34.3904 57.284 33.8353 57.0762C33.7309 56.9393 33.5602 56.7693 33.5934 56.5237C34.0773 55.3856 34.3192 54.1813 33.6645 52.9723C33.6313 52.5945 33.6313 52.179 33.6977 51.7634C33.9065 51.7964 33.9729 52.3159 34.3192 52.212C34.528 51.6264 34.286 50.833 34.6988 50.3135L34.8363 50.2097C35.529 50.4883 36.2596 51.3147 36.9854 50.833C37.7492 50.1388 36.9854 49.3124 36.9522 48.4859C36.9854 48.0373 36.9522 47.6217 36.6771 47.2108C35.6381 46.5544 34.1105 46.4883 33.6266 45.1754C32.5876 43.7256 34.8031 42.3844 33.3514 40.8307C33.9729 40.8637 34.4236 41.3832 34.7035 41.8649C35.1922 42.9322 34.7035 43.9003 33.9776 44.6559C33.8401 44.9629 33.9776 45.2415 34.0488 45.5863C34.8458 46.6914 36.4019 46.2427 37.512 46.7622C38.2711 46.4505 38.8641 45.6902 39.2437 45.0337C38.9305 44.7598 38.6174 45.4115 38.1715 45.3124H38.0671C38.2047 44.8637 38.3423 44.1412 37.8584 43.7964C37.512 43.8625 37.5453 44.4151 37.1989 44.4859C36.3687 43.6217 36.7814 42.1719 36.1932 41.2415C35.8136 41.3454 36.1552 42.2049 35.6381 41.8271C34.6323 40.8307 35.121 39.6217 34.8743 38.4458C34.528 38.5166 34.5659 38.8944 34.3904 39.0692C33.7642 38.8614 33.3182 38.3135 33.1427 37.7232C33.0383 37.1707 33.1759 36.689 33.6645 36.1695C33.5934 35.7917 33.1427 35.8956 33.0383 35.5509C32.8296 35.14 33.2091 34.7197 33.5934 34.4836C33.4226 34.0349 33.6266 33.6193 34.0773 33.5532C34.0773 33.1376 33.6977 32.7646 33.9729 32.2781C34.3192 31.8295 34.9075 31.5556 35.5337 31.5178C35.7045 30.9653 35.7425 30.3419 36.4683 30.1719C36.7435 30.101 36.9854 30.068 37.2321 30.2049L37.2274 30.1908Z" fill="#B5D2EE"/>
<path fill-rule="evenodd" clip-rule="evenodd" d="M13.7296 30.5686C14.5646 30.6016 14.2847 31.7067 15.1528 31.6736C15.6367 31.9853 15.1861 32.434 15.4612 32.8118C15.7743 33.1235 16.1206 33.4682 16.2962 33.9169C16.3294 34.1908 16.225 34.5025 16.1207 34.7433C15.67 34.7055 15.0817 34.5025 14.631 34.4647C14.631 34.9133 14.9441 35.5698 14.6642 35.9476C14.8018 36.3631 15.0153 36.8779 14.8729 37.2935C14.8018 37.5013 14.6642 37.6713 14.5266 37.846C15.1528 38.0208 15.2904 38.6394 15.4612 39.225L16.3626 39.4659C16.5381 39.7398 16.6757 40.2262 16.7421 40.6748C17.1264 40.8118 17.6435 40.9487 17.7479 41.4021C17.5724 42.0916 18.4073 42.0538 18.507 42.6064C19.062 43.1967 17.9519 43.9523 18.9909 44.264C19.6503 44.9535 19.4748 45.7468 19.1284 46.5072C19.4036 46.7811 19.4036 47.3336 19.3372 47.7492C18.6113 48.2309 19.4748 49.506 18.5022 50.0963C18.0515 50.2285 17.9472 49.7138 17.7764 49.4729C17.2592 50.4033 17.079 51.82 17.5344 52.9204C17.3257 53.7516 16.5619 54.578 16.4243 55.5084C15.6605 56.0609 14.446 55.8862 13.8245 56.8165C13.7865 57.5768 12.8187 57.2321 12.3348 57.2651C12.961 55.3667 15.6605 55.9901 16.2155 54.0208C16.4575 52.9535 15.4517 52.2262 15.039 51.3336L14.7638 51.1589C13.5873 51.7775 12.6859 52.8118 11.2958 53.0904C10.57 53.0574 9.77297 53.5721 9.53102 54.1247C9.28907 54.885 8.42089 54.7102 7.76145 54.7433L7.62387 54.6394C7.76145 54.2947 8.24535 54.2616 8.28331 53.9499C9.49781 53.5013 10.7408 52.8118 11.5758 51.8437C11.8889 50.7055 12.0597 49.9452 12.7523 48.944C12.5436 48.4954 12.4439 48.0467 12.5768 47.5981C12.0597 47.3242 11.4002 46.9086 11.3291 46.2899C10.9495 45.9452 10.2189 45.5296 10.3233 44.8779C9.83939 44.637 9.32228 44.5332 9.00916 44.0467C9.28432 43.1872 8.07456 43.3242 8.03661 42.5638C8.03661 42.2191 8.2074 42.0821 8.17419 41.7374C7.69029 41.4257 7.44834 40.8401 7.61913 40.3206C8.4541 39.8059 7.58592 38.8378 8.27856 38.2144C8.55372 37.7657 9.59269 37.8366 9.21316 37.1801C9.31753 36.3537 10.4609 36.5568 10.4609 35.7634C10.3233 35.5225 10.8404 34.97 10.3565 34.8661C9.66386 34.5213 8.62489 35.4186 8.41614 34.2427C8.83363 33.3454 9.59269 32.3112 10.6696 32.0703C10.9495 31.5839 10.1478 31.6925 9.97697 31.3808C9.8726 31.2439 9.63065 31.0692 9.70181 30.8614C10.4277 30.3797 11.5046 30.8944 12.1593 30.5166C12.6811 30.6536 13.2694 30.7905 13.7201 30.5497L13.7296 30.5686Z" fill="#B5D2EE"/>
<path fill-rule="evenodd" clip-rule="evenodd" d="M12.6574 33.0196C12.6242 33.3643 12.1024 33.3265 11.7892 33.3643C11.5805 33.2274 11.3385 33.0196 11.3385 32.7457C11.6517 32.3301 12.4819 32.467 12.6574 33.0196Z" fill="#011E41"/>
<path fill-rule="evenodd" clip-rule="evenodd" d="M49.4578 33.676C49.2491 34.4363 50.3592 34.2994 50.0461 34.9889C49.8041 35.8531 48.9075 36.4387 48.5896 37.369C48.5564 37.5768 48.8695 37.5768 48.9692 37.4399C49.1068 37.2699 49.2823 36.9912 49.5574 36.9912C49.491 38.0963 48.5564 38.715 47.897 39.3714H47.6171C47.5507 37.506 47.6503 36.127 47.6882 33.7846C47.9682 33.4729 48.2054 33.1282 48.6608 33.0621C49.0403 33.0621 49.3534 33.336 49.4578 33.6807V33.676Z" fill="#B5D2EE"/>
<path fill-rule="evenodd" clip-rule="evenodd" d="M40.9658 33.5721C40.9658 33.8838 40.999 34.0869 40.6906 34.1577C40.3775 34.1577 40.0644 34.3655 39.7892 34.1577C39.8936 33.9499 39.9268 33.676 40.2779 33.5343C40.5198 33.4304 40.9041 33.2226 40.9705 33.5674L40.9658 33.5721Z" fill="#011E41"/>
<path fill-rule="evenodd" clip-rule="evenodd" d="M5.00035 36.4009C5.17588 36.9535 4.62082 37.3313 4.89598 37.9877C5.13793 38.4363 5.65979 38.918 5.62183 39.4375C5.62183 39.5084 5.51746 39.7492 5.37988 39.8862L5.06677 40.1601C4.79161 40.127 4.92919 39.8153 4.68723 39.7114L4.44528 39.9523L4.47849 39.9853L4.37412 40.0892C4.13217 38.6725 3.47273 37.4352 4.16538 36.2262C4.40733 35.9145 5.06677 36.0892 4.9956 36.3962L5.00035 36.4009Z" fill="#B5D2EE"/>
<path fill-rule="evenodd" clip-rule="evenodd" d="M5.93495 49.7846C6.10574 50.0255 6.41885 49.8555 6.59438 49.7138C8.53474 48.8543 8.80991 46.5402 8.91428 44.9204C9.22739 44.8873 9.54051 45.1329 9.78246 45.2651C10.7503 46.0963 9.2606 46.6111 9.33176 47.3383C9.71129 49.166 7.04508 48.9582 7.00713 50.6489C6.62285 50.9558 5.93495 50.7197 5.41309 50.7197L5.37514 44.5473C5.55067 43.2014 5.41309 41.9924 5.51272 40.4765L5.89225 40.0609C6.02983 42.7197 5.85904 46.238 5.92546 49.7893L5.93495 49.7846Z" fill="#B5D2EE"/>
<path fill-rule="evenodd" clip-rule="evenodd" d="M47.1 49.6099L46.5449 49.4399C46.5449 48.5095 46.4405 47.4375 46.5781 46.5072L47.062 46.3324C47.2328 47.5036 47.0288 48.127 47.0952 49.6099H47.1Z" fill="#B5D2EE"/>
<path fill-rule="evenodd" clip-rule="evenodd" d="M26.4961 22.5922L51.4077 2.10104V13.1754L30.8607 30.3513L30.8323 66.2899L26.183 69.1943L21.9085 66.4599L21.918 30.2144L1.98307 12.7362L1.9973 1.4446L26.4961 22.5922Z" fill="white"/>
<path fill-rule="evenodd" clip-rule="evenodd" d="M15.8218 15.1069C15.3047 15.6264 14.5408 15.8673 13.9526 16.349V16.5568C14.6452 17.3502 15.2714 18.1435 16.0685 18.833C16.3104 19.4517 16.9034 19.7303 17.1454 20.3159L16.8702 20.212L13.0227 17.6949H12.7808C12.3633 18.3136 12.2969 19.0739 11.8794 19.6925C11.2911 19.3809 10.5273 18.7953 10.2521 18.2427L11.9837 17.1046C11.5331 16.5851 10.8784 16.2781 10.3233 15.8295C10.3233 15.1731 11.1203 14.7622 11.4998 14.2097C11.571 14.1388 11.7086 14.2097 11.7797 14.1766C12.1925 14.6252 12.7808 15.3147 13.2362 15.6595C13.6157 15.0408 13.8245 14.3136 14.2088 13.728C14.8302 14.0727 15.3853 14.5213 15.836 15.1069H15.8218Z" fill="#011E41"/>
<path fill-rule="evenodd" clip-rule="evenodd" d="M39.9743 15.8295C40.5293 15.5178 41.0132 14.9322 41.4307 14.4836H41.6727C42.0522 15.003 42.6452 15.4847 42.8872 16.0703C42.2989 16.519 41.6727 16.8968 41.1556 17.3124C41.7106 17.898 42.4744 18.2097 43.1339 18.6583V18.8661C42.5456 19.277 42.1613 19.8673 41.4687 20.0703C41.1223 19.31 40.8472 18.5166 40.4297 17.7941C38.94 18.6205 37.5215 19.6217 36.0319 20.4859V20.3159L39.3243 16.6607C38.8072 16.1412 38.1098 15.7964 37.4883 15.3478V15.14C37.9722 14.7953 38.4561 14.1388 39.1156 13.9688L39.979 15.8342L39.9743 15.8295Z" fill="#011E41"/>
<path fill-rule="evenodd" clip-rule="evenodd" d="M27.5303 30.0774C27.4971 30.8377 27.3216 31.4233 27.426 32.1506C28.1186 32.0089 28.7448 31.6642 29.4375 31.565C29.7459 32.1506 29.5039 32.9062 29.5419 33.5627L29.4043 33.6288L27.3263 33.0101C26.9089 33.1801 27.2552 33.6666 27.0512 33.8366C26.9468 35.1117 26.7381 36.5615 26.4961 37.8035H26.425C25.9411 36.2498 26.0454 34.663 25.6279 33.1093C24.8309 33.0762 24.0671 33.6618 23.308 33.5579C23.2369 33.0054 23.2369 32.212 23.308 31.6595L23.4124 31.5556C24.143 31.6217 24.7645 32.0703 25.4571 32.1034C25.4904 31.4847 25.3148 30.7575 25.2816 30.0349C25.9411 29.8271 26.7713 29.931 27.4639 29.931L27.5303 30.068V30.0774Z" fill="#011E41"/>
<path fill-rule="evenodd" clip-rule="evenodd" d="M27.4639 50.6016C27.4639 51.2533 27.3596 52.0137 27.2931 52.6701L27.4307 52.774L29.3379 52.1884L29.5087 52.2592C29.5798 53.1187 29.5087 53.5674 29.4043 54.3277C28.8492 54.2947 28.2277 54.0869 27.7391 53.8791L27.7723 53.846C27.6347 53.6713 27.3596 53.7752 27.1508 53.7421C26.9089 55.4281 26.6005 57.1187 26.387 58.7764H26.2494C25.8699 57.1565 25.7987 55.4659 25.4904 53.7421C25.3528 53.7752 24.9353 53.6713 24.7265 53.846L24.7598 53.8791C24.4134 54.1199 23.754 54.1908 23.2701 54.3655C22.9949 53.6052 23.2369 52.9535 23.1657 52.2592C23.9295 52.1884 24.551 52.7079 25.348 52.774C25.4524 52.0514 25.2437 51.362 25.2057 50.6347L25.348 50.5308C26.0407 50.5686 26.7997 50.4599 27.4592 50.6016H27.4639Z" fill="#011E41"/>
<path d="M67.6659 21.124C64.9048 18.6588 64.2216 15.4286 64.2216 12.7367C64.2216 10.8383 64.8763 7.52302 67.4097 5.00118C69.1176 3.30106 71.7079 1.9693 76.0915 1.9693C77.2301 1.9693 78.8241 2.05431 80.2189 2.30933C81.3006 2.50767 82.183 2.59268 83.2362 2.73436C83.4354 2.76269 83.4924 2.87603 83.4924 3.04604C83.4924 3.27273 83.407 3.61275 83.3501 4.63282C83.2931 5.56789 83.2931 7.12633 83.2647 7.55136C83.2362 7.97639 83.1793 8.1464 83.0085 8.1464C82.8092 8.1464 82.7808 7.94805 82.7808 7.55136C82.7808 6.44628 82.3253 5.28453 81.5852 4.66116C80.589 3.8111 78.3972 3.04604 75.8922 3.04604C72.1064 3.04604 70.3416 4.15112 69.3453 5.11452C67.2674 7.09799 66.7835 9.61983 66.7835 12.51C66.7835 17.9221 70.9678 22.8808 77.0593 22.8808C79.1942 22.8808 80.8736 22.6257 82.0122 21.464C82.61 20.8406 82.98 19.5939 83.0654 19.0838C83.1223 18.7721 83.1793 18.6588 83.3501 18.6588C83.4924 18.6588 83.5493 18.8571 83.5493 19.0838C83.5493 19.2822 83.2077 21.7473 82.9231 22.7107C82.7523 23.2491 82.6954 23.3058 82.183 23.5325C81.0444 23.9858 78.8811 24.1842 77.0593 24.1842C72.7896 24.1842 69.9146 23.1358 67.6659 21.124Z" fill="#00285E"/>
<path d="M91.8326 16.8737C91.6903 16.8737 91.6049 16.9587 91.548 17.1004L90.2955 20.6423C90.0108 21.4357 89.8116 22.2007 89.8116 22.6541C89.8116 23.1641 90.1247 23.3908 90.7509 23.3908H90.9502C91.2064 23.3908 91.2918 23.4758 91.2918 23.5891C91.2918 23.7308 91.064 23.7875 90.8648 23.7875C90.2386 23.7875 88.9292 23.7025 88.6161 23.7025C88.3314 23.7025 87.079 23.7875 85.8834 23.7875C85.5703 23.7875 85.428 23.7308 85.428 23.5891C85.428 23.4758 85.5418 23.3908 85.7696 23.3908C85.9119 23.3908 86.1681 23.3908 86.3389 23.3625C87.5629 23.2491 88.0468 22.314 88.5307 21.124L94.2237 6.19126C94.5368 5.36954 94.6222 5.22786 94.8214 5.22786C94.9637 5.22786 95.0776 5.3412 95.3907 6.13459C95.7892 7.06966 99.6605 16.9587 101.169 20.5006C102.108 22.7391 102.934 23.1074 103.332 23.2491C103.702 23.3908 104.101 23.3908 104.3 23.3908C104.499 23.3908 104.642 23.4475 104.642 23.5891C104.642 23.7308 104.528 23.7875 104.215 23.7875C103.93 23.7875 101.795 23.7875 99.8882 23.7308C99.3473 23.7025 99.1766 23.6741 99.1766 23.5325C99.1766 23.4475 99.2619 23.3625 99.3758 23.3341C99.4897 23.2774 99.6605 23.1358 99.4897 22.7107L97.2409 17.0153C97.184 16.9303 97.1271 16.8737 97.0132 16.8737H91.8326ZM96.6716 15.8819C96.7855 15.8819 96.7855 15.7969 96.757 15.7119L94.5083 9.44982C94.366 9.05313 94.3375 9.05313 94.1952 9.44982L92.0603 15.7119C92.0034 15.8253 92.0603 15.8819 92.1172 15.8819H96.6716Z" fill="#00285E"/>
<path d="M107.346 6.38961C107.346 5.51122 107.431 5.22786 107.659 5.22786C107.858 5.22786 108.342 5.79457 108.542 5.99292C108.798 6.27627 112.754 10.2999 116.739 14.3518C118.96 16.5053 121.806 19.4238 122.546 20.1039L122.233 8.31641C122.205 6.78631 122.034 6.27627 121.265 6.07792C120.781 5.99292 120.354 5.96458 120.155 5.96458C119.871 5.96458 119.814 5.85124 119.814 5.7379C119.814 5.59622 120.041 5.56789 120.326 5.56789C121.55 5.56789 122.746 5.65289 123.002 5.65289C123.286 5.65289 124.169 5.56789 125.279 5.56789C125.592 5.56789 125.677 5.59622 125.677 5.7379C125.677 5.85124 125.592 5.93625 125.421 5.96458C125.25 5.99292 125.023 5.99292 124.71 6.04959C124.055 6.19126 123.856 6.47462 123.856 8.17473L123.799 22.3991C123.799 23.8158 123.742 23.9575 123.543 23.9575C123.343 23.9575 123.059 23.7591 121.664 22.4557C121.55 22.3991 117.593 18.4888 115.117 16.0803C112.157 13.0201 109.31 10.0732 108.598 9.33648L108.968 20.4156C109.025 22.3707 109.196 23.1074 109.908 23.2775C110.363 23.3908 110.847 23.3908 111.075 23.3908C111.303 23.3908 111.416 23.4758 111.416 23.5891C111.416 23.7308 111.274 23.7875 110.961 23.7875C109.424 23.7875 108.399 23.7025 108.2 23.7025C108.001 23.7025 106.947 23.7875 105.723 23.7875C105.467 23.7875 105.297 23.7591 105.297 23.5891C105.297 23.4758 105.41 23.3908 105.695 23.3908C105.894 23.3908 106.207 23.3908 106.577 23.2775C107.204 23.0791 107.346 22.314 107.346 20.2456C107.346 6.72963 107.374 11.0933 107.346 6.38961Z" fill="#00285E"/>
<path d="M137.543 16.7887C137.543 18.9705 137.571 20.9823 137.685 22.0307C137.77 22.7107 137.827 23.1074 138.539 23.2774C138.88 23.3625 139.421 23.3908 139.649 23.3908C139.877 23.3908 139.991 23.4758 139.991 23.5608C139.991 23.7025 139.905 23.7875 139.62 23.7875C138.169 23.7875 136.489 23.7025 136.375 23.7025C136.262 23.7025 134.582 23.7875 133.842 23.7875C133.529 23.7875 133.415 23.7308 133.415 23.5891C133.415 23.5041 133.501 23.3908 133.728 23.3908C133.956 23.3908 134.127 23.3908 134.354 23.3625C134.895 23.2774 134.981 22.9374 135.095 21.974C135.208 20.954 135.208 18.9138 135.208 16.7887V6.67296C134.269 6.67296 132.76 6.67296 131.622 6.7013C129.8 6.72963 129.402 7.01299 129.003 7.60803C128.747 8.00472 128.633 8.34475 128.576 8.48642C128.491 8.68477 128.434 8.71311 128.32 8.71311C128.206 8.71311 128.178 8.59976 128.178 8.45809C128.149 8.28808 128.576 6.41795 128.747 5.65289C128.832 5.31287 128.918 5.19953 129.003 5.19953C129.202 5.19953 129.743 5.45455 130.256 5.51122C131.252 5.62456 132.049 5.65289 132.077 5.65289H141.414C142.211 5.65289 143.065 5.59622 143.463 5.51122C143.833 5.42621 143.919 5.39787 144.004 5.39787C144.118 5.39787 144.175 5.53955 144.175 5.65289C144.175 6.44628 144.118 8.31641 144.118 8.54309C144.118 8.79811 144.004 8.88312 143.919 8.88312C143.776 8.88312 143.719 8.76978 143.719 8.54309C143.719 8.45809 143.719 8.42975 143.691 8.1464C143.577 7.01299 143.207 6.72963 140.332 6.7013C139.25 6.7013 138.368 6.67296 137.543 6.67296V16.7887Z" fill="#00285E"/>
<path d="M149.275 12.5384C149.275 8.82644 149.275 8.1464 149.218 7.38134C149.161 6.58796 148.962 6.19126 148.136 6.02125C147.965 5.99291 147.681 5.96458 147.453 5.96458C147.254 5.96458 147.083 5.87957 147.083 5.79457C147.083 5.62456 147.225 5.56788 147.51 5.56788C148.079 5.56788 148.848 5.62456 150.442 5.65289C150.584 5.65289 155.651 5.65289 156.22 5.62456C156.79 5.59622 157.103 5.56788 157.33 5.48288C157.501 5.42621 157.53 5.39787 157.644 5.39787C157.7 5.39787 157.757 5.45454 157.757 5.59622C157.757 5.76623 157.587 6.16293 157.53 6.87131C157.501 7.35301 157.473 7.80637 157.444 8.34474C157.444 8.59976 157.387 8.76977 157.245 8.76977C157.103 8.76977 157.046 8.65643 157.046 8.45809C157.017 8.03306 156.932 7.7497 156.846 7.55136C156.676 6.98465 156.42 6.7863 154.996 6.7013C154.626 6.67296 151.808 6.64463 151.751 6.64463C151.666 6.64463 151.609 6.7013 151.609 6.87131V13.3034C151.609 13.4734 151.637 13.5868 151.78 13.5868C152.121 13.5868 155.025 13.5584 155.623 13.5018C156.277 13.4734 156.704 13.3884 156.932 13.0767C157.046 12.9067 157.131 12.8501 157.245 12.8501C157.302 12.8501 157.359 12.8784 157.359 13.0201C157.359 13.1617 157.245 13.7001 157.16 14.5218C157.074 15.3152 157.074 15.8819 157.046 16.2503C157.017 16.477 156.96 16.562 156.846 16.562C156.704 16.562 156.676 16.392 156.676 16.1936C156.676 16.0236 156.647 15.7403 156.59 15.5136C156.476 15.1452 156.306 14.7485 155.224 14.6635C154.569 14.6068 152.264 14.5502 151.808 14.5502C151.637 14.5502 151.609 14.6352 151.609 14.7485V16.817C151.609 17.6954 151.58 20.1889 151.609 20.6706C151.666 21.719 151.808 22.2574 152.406 22.5124C152.833 22.7107 153.516 22.7674 154.484 22.7674C155.025 22.7674 155.936 22.7957 156.647 22.5974C157.501 22.3424 157.7 21.7757 157.928 20.7273C157.985 20.4439 158.07 20.3306 158.184 20.3306C158.355 20.3306 158.355 20.5856 158.355 20.7556C158.355 20.954 158.127 22.7391 158.042 23.2208C157.928 23.7875 157.729 23.8442 156.79 23.8442C154.911 23.8442 154.114 23.7875 153.118 23.7875C152.121 23.7591 150.812 23.7025 149.759 23.7025C149.104 23.7025 148.563 23.7875 147.88 23.7875C147.624 23.7875 147.482 23.7308 147.482 23.5891C147.482 23.4758 147.595 23.3908 147.738 23.3908C147.909 23.3908 148.108 23.3625 148.307 23.3058C148.819 23.1924 149.161 22.8241 149.218 21.0673C149.246 20.1039 149.275 18.9421 149.275 16.7887V12.5384Z" fill="#00285E"/>
<path d="M164.134 12.5384C164.134 8.79811 164.134 8.11806 164.077 7.35301C164.02 6.58796 163.82 6.16293 162.938 5.99292C162.767 5.96458 162.483 5.93625 162.255 5.93625C162.056 5.93625 161.942 5.87957 161.942 5.76623C161.942 5.65289 162.027 5.56789 162.283 5.56789C163.507 5.56789 165.244 5.65289 165.301 5.65289C165.557 5.65289 167.492 5.56789 168.289 5.56789C169.883 5.56789 171.62 5.70956 172.958 6.64463C173.498 7.04132 174.666 8.17473 174.666 10.1015C174.666 11.66 173.897 13.6434 171.648 15.4569C173.726 18.0071 175.434 20.1039 176.886 21.6057C178.252 22.9941 179.106 23.2208 179.903 23.3341C180.102 23.3625 180.7 23.3908 180.785 23.3908C181.013 23.3908 181.099 23.4758 181.099 23.5891C181.099 23.7308 180.985 23.7875 180.586 23.7875H178.594C177.256 23.7875 176.63 23.7025 176.003 23.4475C174.808 22.9374 173.954 21.6623 172.474 19.7639C171.364 18.4038 170.225 16.8737 169.741 16.2786C169.627 16.1653 169.57 16.1086 169.4 16.1086L166.468 16.0803C166.354 16.0803 166.325 16.1086 166.325 16.222V16.6187C166.325 18.8855 166.325 20.954 166.468 21.974C166.553 22.6541 166.638 23.2208 167.578 23.3341C167.862 23.3625 168.176 23.3908 168.403 23.3908C168.659 23.3908 168.773 23.4758 168.773 23.5608C168.773 23.7025 168.659 23.7875 168.375 23.7875C166.895 23.7875 165.301 23.7025 165.187 23.7025C164.731 23.7025 163.479 23.7875 162.71 23.7875C162.426 23.7875 162.312 23.7308 162.312 23.5608C162.312 23.4758 162.483 23.3908 162.653 23.3908C162.853 23.3908 163.052 23.3908 163.28 23.3341C163.763 23.2491 163.934 22.9374 164.02 22.2574C164.162 21.2373 164.134 18.9138 164.134 16.7887V12.5384ZM166.325 14.5502C166.325 14.6919 166.354 14.8335 166.468 14.8902C166.838 15.0885 167.976 15.2586 169.001 15.2586C169.599 15.2586 170.31 15.2302 170.908 14.8335C171.762 14.2952 172.331 13.0484 172.331 11.2349C172.331 8.1464 170.68 6.44628 168.147 6.44628C167.435 6.44628 166.838 6.50295 166.496 6.58796C166.411 6.61629 166.325 6.7013 166.325 6.84297V14.5502Z" fill="#00285E"/>
<path d="M182.579 12.5384C182.579 8.82645 182.579 8.11806 182.522 7.35301C182.465 6.58796 182.266 6.19126 181.412 6.02125C181.184 5.99292 180.786 5.96458 180.729 5.96458C180.472 5.96458 180.359 5.87957 180.359 5.76623C180.359 5.62456 180.529 5.56789 180.786 5.56789C181.981 5.56789 183.689 5.65289 183.746 5.65289C184.429 5.65289 185.368 5.56789 186.479 5.56789C190.748 5.56789 191.602 7.91972 191.602 9.13813C191.602 11.2349 190.407 12.5667 189.211 13.5018C191.118 14.0685 193.566 15.7969 193.566 18.5738C193.566 21.3506 191.431 23.8442 187.105 23.8442C186.649 23.8442 186.08 23.7875 185.34 23.7875C184.543 23.7308 183.86 23.7025 183.746 23.7025C182.863 23.7025 182.123 23.7875 181.184 23.7875C180.928 23.7875 180.786 23.7308 180.786 23.6175C180.786 23.5325 180.814 23.3908 181.184 23.3908C181.383 23.3908 181.469 23.3908 181.696 23.3341C182.18 23.2491 182.351 22.6541 182.436 21.974C182.579 20.9256 182.579 18.9988 182.579 16.7887V12.5384ZM184.799 13.0484C184.799 13.2468 184.856 13.2751 184.941 13.3318C185.112 13.3601 185.425 13.4168 186.365 13.4168C187.816 13.4168 188.243 13.3318 188.784 12.7367C189.24 12.1983 189.524 11.405 189.524 10.4699C189.524 8.51476 188.642 6.33294 186.222 6.33294C185.995 6.33294 185.397 6.38961 185.141 6.47462C184.884 6.53129 184.799 6.58796 184.799 6.72963V13.0484ZM184.799 15.4852C184.799 17.2704 184.799 20.3872 184.828 20.6139C184.913 21.8607 184.884 22.229 185.738 22.5974C186.422 22.9374 187.56 22.9658 187.845 22.9658C189.069 22.9658 191.204 22.3707 191.204 19.7639C191.204 18.3188 190.691 16.137 188.756 14.8335C187.902 14.3235 187.389 14.2668 186.82 14.2102C186.336 14.1535 185.34 14.1535 184.941 14.2102C184.856 14.2102 184.799 14.2385 184.799 14.3802V15.4852Z" fill="#00285E"/>
<path d="M200.678 15.9103C200.678 19.3672 201.332 20.8406 202.414 21.804C203.638 22.8808 205.004 23.1074 206.171 23.1074C207.652 23.1074 208.99 22.7107 210.071 21.464C211.21 20.1606 211.466 18.0071 211.466 15.5419V12.5384C211.466 8.82645 211.466 8.17473 211.409 7.40968C211.352 6.58796 211.267 6.16293 210.356 6.02125C210.157 5.99292 209.815 5.96458 209.559 5.96458C209.388 5.96458 209.274 5.87957 209.274 5.79457C209.274 5.62456 209.416 5.56789 209.673 5.56789C210.897 5.56789 212.32 5.65289 212.434 5.65289C212.576 5.65289 213.8 5.56789 214.597 5.56789C214.882 5.56789 214.996 5.62456 214.996 5.76623C214.996 5.87957 214.882 5.96458 214.711 5.96458C214.54 5.96458 214.483 5.96458 214.199 5.99292C213.402 6.07792 213.288 6.58796 213.231 7.40968C213.202 8.17473 213.202 8.82645 213.202 12.5384V15.0602C213.202 17.6104 212.918 20.6706 210.897 22.3991C209.046 23.9575 207.225 24.0992 205.688 24.0992C204.891 24.0992 202.215 24.0992 200.365 22.3991C199.141 21.2656 198.258 19.5655 198.258 16.0519V12.5384C198.258 8.79811 198.258 8.1464 198.173 7.38135C198.144 6.61629 198.002 6.13459 197.12 6.02125C196.949 5.99292 196.607 5.96458 196.38 5.96458C196.18 5.96458 196.066 5.87957 196.066 5.79457C196.066 5.62456 196.18 5.56789 196.493 5.56789C197.717 5.56789 199.255 5.65289 199.454 5.65289C199.681 5.65289 201.361 5.56789 202.129 5.56789C202.443 5.56789 202.528 5.62456 202.528 5.76623C202.528 5.90791 202.329 5.96458 202.186 5.96458C202.016 5.96458 201.788 5.99292 201.56 6.02125C200.877 6.10626 200.763 6.58796 200.706 7.38135C200.678 8.1464 200.678 8.79811 200.678 12.5384V15.9103Z" fill="#00285E"/>
<path d="M220.489 12.5384C220.489 8.79811 220.489 8.11806 220.432 7.35301C220.375 6.58796 220.176 6.16293 219.294 5.99292C219.123 5.96458 218.838 5.93625 218.611 5.93625C218.411 5.93625 218.298 5.87957 218.298 5.76623C218.298 5.65289 218.383 5.56789 218.639 5.56789C219.863 5.56789 221.599 5.65289 221.656 5.65289C221.913 5.65289 223.848 5.56789 224.645 5.56789C226.239 5.56789 227.976 5.70956 229.313 6.64463C229.854 7.04132 231.021 8.17473 231.021 10.1015C231.021 11.66 230.253 13.6434 228.004 15.4569C230.082 18.0071 231.79 20.1039 233.242 21.6057C234.608 22.9941 235.462 23.2208 236.259 23.3341C236.458 23.3625 237.056 23.3908 237.141 23.3908C237.369 23.3908 237.454 23.4758 237.454 23.5891C237.454 23.7308 237.341 23.7875 236.942 23.7875H234.949C233.612 23.7875 232.985 23.7025 232.359 23.4475C231.164 22.9374 230.31 21.6623 228.83 19.7639C227.719 18.4038 226.581 16.8737 226.097 16.2786C225.983 16.1653 225.926 16.1086 225.755 16.1086L222.823 16.0803C222.71 16.0803 222.681 16.1086 222.681 16.222V16.6187C222.681 18.8855 222.681 20.954 222.823 21.974C222.909 22.6541 222.994 23.2208 223.934 23.3341C224.218 23.3625 224.531 23.3908 224.759 23.3908C225.015 23.3908 225.129 23.4758 225.129 23.5608C225.129 23.7025 225.015 23.7875 224.731 23.7875C223.25 23.7875 221.656 23.7025 221.543 23.7025C221.087 23.7025 219.835 23.7875 219.066 23.7875C218.781 23.7875 218.668 23.7308 218.668 23.5608C218.668 23.4758 218.838 23.3908 219.009 23.3908C219.208 23.3908 219.408 23.3908 219.635 23.3341C220.119 23.2491 220.29 22.9374 220.375 22.2574C220.518 21.2373 220.489 18.9138 220.489 16.7887V12.5384ZM222.681 14.5502C222.681 14.6919 222.71 14.8335 222.823 14.8902C223.193 15.0885 224.332 15.2586 225.357 15.2586C225.955 15.2586 226.666 15.2302 227.264 14.8335C228.118 14.2952 228.687 13.0484 228.687 11.2349C228.687 8.1464 227.036 6.44628 224.503 6.44628C223.791 6.44628 223.193 6.50295 222.852 6.58796C222.766 6.61629 222.681 6.7013 222.681 6.84297V14.5502Z" fill="#00285E"/>
<path d="M241.724 17.6104C241.724 16.2503 241.525 15.7403 241.098 15.0035C240.927 14.6919 237.625 9.33648 236.743 8.11806C235.974 7.04132 235.69 6.7013 235.291 6.38961C234.893 6.10626 234.523 5.99292 233.953 5.96458C233.782 5.96458 233.64 5.87957 233.64 5.7379C233.64 5.65289 233.754 5.56789 233.982 5.56789C234.437 5.56789 236.6 5.65289 236.657 5.65289C236.828 5.65289 237.768 5.56789 238.821 5.56789C239.105 5.56789 239.191 5.65289 239.191 5.7379C239.191 5.85124 239.105 5.90791 238.878 5.96458C238.479 6.04959 238.422 6.19126 238.422 6.41795C238.422 6.7013 238.593 6.98465 238.792 7.35301C239.162 8.06139 242.92 14.0685 243.347 14.7769C243.802 13.7851 246.99 8.59976 247.389 7.89138C247.93 6.95632 248.043 6.7013 248.043 6.38961C248.043 6.02125 247.702 6.02125 247.389 5.96458C247.161 5.93625 247.076 5.85124 247.076 5.7379C247.076 5.65289 247.133 5.56789 247.417 5.56789C248.1 5.56789 248.698 5.65289 249.154 5.65289C249.524 5.65289 251.175 5.56789 251.658 5.56789C251.915 5.56789 252 5.65289 252 5.7379C252 5.87957 251.858 5.96458 251.658 5.96458C251.061 5.99292 250.634 6.04959 250.235 6.33294C249.808 6.61629 249.637 6.87131 249.182 7.49469C247.531 9.76151 244.77 14.3802 244.343 15.3719C244.001 16.2503 244.058 16.8737 244.058 17.6104V19.6789C244.058 19.8772 244.058 20.9256 244.115 21.9457C244.172 22.6257 244.229 23.1074 245.111 23.2774C245.482 23.3625 245.965 23.3908 246.165 23.3908C246.392 23.3908 246.478 23.4758 246.478 23.5608C246.478 23.7025 246.392 23.7875 246.136 23.7875C244.713 23.7875 242.948 23.7025 242.863 23.7025C242.806 23.7025 241.098 23.7875 240.301 23.7875C240.016 23.7875 239.902 23.7025 239.902 23.5608C239.902 23.4758 239.988 23.3908 240.187 23.3908C240.415 23.3908 240.671 23.3625 240.899 23.3058C241.383 23.2208 241.582 22.6257 241.639 21.9457C241.724 20.9256 241.724 19.9055 241.724 19.6789V17.6104Z" fill="#00285E"/>
<path d="M99.5134 54.1157C99.1149 53.9174 99.0864 53.804 99.0864 53.039C99.0864 51.6222 99.2003 50.4888 99.2287 50.0354C99.2572 49.7237 99.3141 49.5821 99.4565 49.5821C99.6272 49.5821 99.6557 49.6671 99.6557 49.8937C99.6557 50.1488 99.6557 50.5455 99.7411 50.9422C100.168 53.039 102.047 53.8323 103.954 53.8323C106.687 53.8323 108.024 51.8772 108.024 50.0638C108.024 48.1086 107.199 46.9752 104.751 44.9634L103.47 43.915C100.453 41.4498 99.7696 39.693 99.7696 37.7662C99.7696 34.7344 102.047 32.6659 105.662 32.6659C106.772 32.6659 107.597 32.7792 108.309 32.9492C108.85 33.0626 109.078 33.0909 109.305 33.0909C109.533 33.0909 109.59 33.1476 109.59 33.2893C109.59 33.4309 109.476 34.366 109.476 36.2928C109.476 36.7462 109.419 36.9445 109.277 36.9445C109.106 36.9445 109.078 36.8028 109.049 36.5761C109.021 36.2361 108.85 35.4711 108.679 35.1594C108.508 34.8477 107.74 33.6576 105.121 33.6576C103.157 33.6576 101.62 34.876 101.62 36.9445C101.62 38.5596 102.36 39.5797 105.093 41.7048L105.89 42.3282C109.248 44.9634 110.045 46.7202 110.045 48.987C110.045 50.1488 109.59 52.3022 107.626 53.6907C106.402 54.5407 104.865 54.8808 103.328 54.8808C101.99 54.8808 100.68 54.6824 99.5134 54.1157Z" fill="#00285E"/>
<path d="M116.882 52.2172C114.462 50.1204 113.836 47.3436 113.836 44.9917C113.836 43.405 114.462 40.5998 116.711 38.4463C118.248 36.9728 120.554 35.9244 124.368 35.9244C125.677 35.9244 126.731 36.0378 128.125 36.2361C129.036 36.3778 129.947 36.5195 130.63 36.5478C130.858 36.5478 130.886 36.6895 130.886 36.8312C130.886 37.0578 130.801 37.3129 130.744 38.2196C130.716 39.013 130.716 40.4864 130.687 40.8264C130.659 41.2231 130.602 41.3648 130.46 41.3648C130.26 41.3648 130.232 41.1948 130.232 40.8264C130.232 40.0047 129.833 38.8996 129.122 38.3613C128.268 37.6246 126.275 36.9162 124.083 36.9162C120.924 36.9162 119.472 37.7946 118.618 38.5596C116.768 40.2314 116.341 42.2715 116.341 44.7651C116.341 49.4687 120.184 53.6057 125.194 53.6057C127.129 53.6057 128.552 53.4073 129.549 52.4439C130.061 51.9056 130.346 51.1972 130.488 50.4038C130.545 50.1204 130.63 49.9788 130.801 49.9788C130.943 49.9788 130.943 50.1771 130.943 50.3754C130.943 50.6021 130.573 52.8973 130.374 53.5207C130.203 53.974 130.118 54.059 129.719 54.229C128.723 54.6541 126.816 54.7957 125.222 54.7957C121.465 54.7957 118.903 53.9457 116.882 52.2172Z" fill="#00285E"/>
<path d="M149.412 43.8583C149.498 43.8583 149.583 43.8583 149.583 43.7166V43.2066C149.583 39.4664 149.583 38.8146 149.526 38.0496C149.469 37.2845 149.355 36.8878 148.416 36.7178C148.217 36.6895 147.932 36.6612 147.705 36.6612C147.505 36.6612 147.363 36.5762 147.363 36.4628C147.363 36.2928 147.505 36.2645 147.761 36.2645C148.957 36.2645 150.636 36.3495 150.75 36.3495C150.864 36.3495 152.458 36.2645 153.312 36.2645C153.597 36.2645 153.768 36.2928 153.768 36.4628C153.768 36.5478 153.682 36.6612 153.454 36.6612C153.284 36.6612 153.056 36.6895 152.885 36.7178C152.117 36.8312 152.003 37.2845 151.946 38.0779C151.917 38.843 151.917 39.4947 151.917 43.2349V47.4852C151.917 49.8087 151.917 51.6505 152.031 52.6706C152.117 53.3506 152.259 53.9174 152.999 54.0024C153.369 54.059 153.739 54.0874 153.995 54.0874C154.223 54.0874 154.365 54.1724 154.365 54.2857C154.365 54.4274 154.223 54.4841 153.938 54.4841C152.515 54.4841 150.864 54.3991 150.722 54.3991C150.608 54.3991 148.957 54.4841 148.188 54.4841C147.904 54.4841 147.761 54.4274 147.761 54.2574C147.761 54.1724 147.847 54.0874 148.075 54.0874C148.302 54.0874 148.502 54.0874 148.729 54.0307C149.213 53.9457 149.355 53.3223 149.441 52.6706C149.583 51.6505 149.583 49.8654 149.583 47.5703V45.0484C149.583 44.9351 149.498 44.8784 149.412 44.8784H139.08C138.994 44.8784 138.937 44.9067 138.937 45.0484V47.5703C138.937 49.8654 138.937 51.7072 139.08 52.7273C139.165 53.3507 139.307 53.9174 140.047 54.0024C140.418 54.059 140.844 54.0874 141.072 54.0874C141.271 54.0874 141.414 54.1724 141.414 54.2857C141.414 54.3991 141.3 54.4841 141.044 54.4841C139.592 54.4841 137.913 54.3991 137.77 54.3991C137.685 54.3991 135.949 54.4841 135.208 54.4841C134.924 54.4841 134.753 54.4274 134.753 54.2857C134.753 54.2007 134.81 54.0874 135.066 54.0874C135.294 54.0874 135.522 54.059 135.749 54.0024C136.262 53.889 136.375 53.3507 136.461 52.7273C136.632 51.7072 136.603 49.8087 136.603 47.4852V43.2916C136.603 39.5514 136.603 38.8146 136.546 38.0496C136.489 37.3129 136.29 36.7745 135.465 36.6895C135.208 36.6612 134.924 36.6328 134.696 36.6328C134.497 36.6328 134.383 36.5478 134.383 36.4628C134.383 36.2928 134.525 36.2645 134.81 36.2645C136.034 36.2645 137.4 36.3495 137.77 36.3495C137.884 36.3495 139.535 36.2645 140.332 36.2645C140.617 36.2645 140.759 36.3211 140.759 36.4628C140.759 36.5762 140.645 36.6328 140.474 36.6328C140.304 36.6328 140.218 36.6328 139.905 36.6895C139.194 36.8028 139.023 37.2845 138.966 38.0779C138.937 38.843 138.937 39.4664 138.937 43.2066V43.7166C138.937 43.8583 139.023 43.8583 139.108 43.8583H149.412Z" fill="#00285E"/>
<path d="M157.558 45.3318C157.558 41.5632 160.49 35.9244 167.521 35.9244C173.157 35.9244 177.455 39.268 177.455 44.9634C177.455 50.6588 173.442 54.7957 167.379 54.7957C160.405 54.7957 157.558 49.6387 157.558 45.3318ZM174.779 45.6718C174.779 39.9764 171.25 36.8028 167.35 36.8028C163.45 36.8028 160.205 39.2397 160.205 44.595C160.205 49.9504 163.308 53.8323 168.09 53.8323C169.997 53.8323 174.779 52.8689 174.779 45.6718Z" fill="#00285E"/>
<path d="M181.042 45.3318C181.042 41.5632 183.974 35.9244 191.004 35.9244C196.64 35.9244 200.939 39.268 200.939 44.9634C200.939 50.6588 196.925 54.7957 190.862 54.7957C183.888 54.7957 181.042 49.6387 181.042 45.3318ZM198.263 45.6718C198.263 39.9764 194.733 36.8028 190.834 36.8028C186.934 36.8028 183.689 39.2397 183.689 44.595C183.689 49.9504 186.792 53.8323 191.574 53.8323C193.481 53.8323 198.263 52.8689 198.263 45.6718Z" fill="#00285E"/>
<path d="M208.994 47.5419C208.994 50.8005 209.108 52.4439 209.592 52.8973C210.047 53.294 210.617 53.464 212.581 53.464C213.833 53.464 214.972 53.464 215.598 52.6706C215.883 52.2456 216.082 51.6789 216.139 51.2538C216.167 51.0272 216.224 50.9138 216.367 50.9138C216.481 50.9138 216.537 50.9988 216.537 51.2822C216.537 51.5655 216.367 53.1806 216.196 53.8323C216.025 54.3991 216.054 54.5407 214.687 54.5407C212.752 54.5407 210.617 54.3991 207.77 54.3991C206.831 54.3991 206.262 54.4841 205.265 54.4841C204.981 54.4841 204.81 54.4274 204.81 54.2574C204.81 54.1724 204.895 54.0874 205.123 54.0874C205.351 54.0874 205.578 54.0874 205.806 54.0307C206.29 53.9457 206.461 53.379 206.546 52.6989C206.717 51.6222 206.66 49.6671 206.66 47.4852V43.2349C206.66 39.4947 206.66 38.8713 206.603 38.1063C206.546 37.3129 206.432 36.8028 205.465 36.6895C205.294 36.6612 204.981 36.6612 204.753 36.6612C204.554 36.6612 204.44 36.5762 204.44 36.4628C204.44 36.3211 204.582 36.2645 204.867 36.2645C206.062 36.2645 207.77 36.3495 207.827 36.3495C208.226 36.3495 209.962 36.2645 210.759 36.2645C211.044 36.2645 211.129 36.3495 211.129 36.4628C211.129 36.5762 210.987 36.6612 210.816 36.6612C210.617 36.6612 210.332 36.6895 210.047 36.7178C209.25 36.8312 209.08 37.2845 209.023 38.1063C208.966 38.8713 208.994 39.4947 208.994 43.2349V47.5419Z" fill="#00285E"/>
</g>
<defs>
<clipPath id="clip0_6760_1238">
<rect width="252" height="72" fill="white"/>
</clipPath>
</defs>
</svg>
